0
SECTION
2
HEADER
9
$INSUNITS
70
4
9
$ACADVER
1
AC1014
9
$HANDSEED
5
FFFF
0
ENDSEC
0
SECTION
2
TABLES
0
TABLE
2
VPORT
5
8
100
AcDbSymbolTable
0
ENDTAB
0
TABLE
2
LTYPE
5
5
100
AcDbSymbolTable
0
LTYPE
5
14
100
AcDbSymbolTableRecord
100
AcDbLinetypeTableRecord
2
BYBLOCK
70
0
0
LTYPE
5
15
100
AcDbSymbolTableRecord
100
AcDbLinetypeTableRecord
2
BYLAYER
70
0
0
ENDTAB
0
TABLE
2
LAYER
5
2
100
AcDbSymbolTable
70
2
0
LAYER
5
50
100
AcDbSymbolTableRecord
100
AcDbLayerTableRecord
2
0
70
0
6
CONTINUOUS
0
ENDTAB
0
TABLE
2
STYLE
5
3
100
AcDbSymbolTable
70
1
0
STYLE
5
11
100
AcDbSymbolTableRecord
100
AcDbTextStyleTableRecord
2
STANDARD
70
0
0
ENDTAB
0
TABLE
2
VIEW
5
6
100
AcDbSymbolTable
70
0
0
ENDTAB
0
TABLE
2
UCS
5
7
100
AcDbSymbolTable
70
0
0
ENDTAB
0
TABLE
2
APPID
5
9
100
AcDbSymbolTable
70
2
0
APPID
5
12
100
AcDbSymbolTableRecord
100
AcDbRegAppTableRecord
2
ACAD
70
0
0
ENDTAB
0
TABLE
2
DIMSTYLE
5
A
100
AcDbSymbolTable
70
1
0
ENDTAB
0
TABLE
2
BLOCK_RECORD
5
1
100
AcDbSymbolTable
70
1
0
BLOCK_RECORD
5
1F
100
AcDbSymbolTableRecord
100
AcDbBlockTableRecord
2
*MODEL_SPACE
0
BLOCK_RECORD
5
1B
100
AcDbSymbolTableRecord
100
AcDbBlockTableRecord
2
*PAPER_SPACE
0
ENDTAB
0
ENDSEC
0
SECTION
2
BLOCKS
0
BLOCK
5
20
100
AcDbEntity
100
AcDbBlockBegin
2
*MODEL_SPACE
0
ENDBLK
5
21
100
AcDbEntity
100
AcDbBlockEnd
0
BLOCK
5
1C
100
AcDbEntity
100
AcDbBlockBegin
2
*PAPER_SPACE
0
ENDBLK
5
1D
100
AcDbEntity
100
AcDbBlockEnd
0
ENDSEC
0
SECTION
2
ENTITIES
0
LWPOLYLINE
5
100
100
AcDbEntity
8
0
100
AcDbPolyline
90
82
70
1
43
0.0
10
-956.45000000000005
20
464.80000000000388
10
-957.45000000000005
20
463.80000000000393
10
-957.45000000000005
20
339.80000000000371
10
-962.54999999999995
20
339.80000000000371
10
-962.54999999999995
20
463.80000000000388
10
-963.54999999999995
20
464.80000000000388
10
-1097.5500000000002
20
464.80000000000388
10
-1097.5500000000002
20
250.00000000000199
10
-1090
20
250.00000000000213
10
-1090
20
245.80000000000388
10
-1089
20
244.80000000000388
10
-1051
20
244.80000000000388
10
-1050
20
245.80000000000388
10
-1050
20
250.00000000000384
10
-965.00000000000011
20
250.00000000000696
10
-965.00000000000011
20
245.7999999999999
10
-964.00000000000023
20
244.80000000000388
10
-926.00000000000011
20
244.80000000000388
10
-925.00000000000011
20
245.80000000000388
10
-925
20
250.00000000000384
10
-865
20
250.00000000000767
10
-865
20
245.80000000000388
10
-864
20
244.80000000000388
10
-826.00000000000011
20
244.80000000000388
10
-825.00000000000011
20
245.80000000000388
10
-825
20
250.00000000000384
10
-765
20
250.00000000000767
10
-765
20
245.80000000000388
10
-764
20
244.80000000000388
10
-726.00000000000011
20
244.80000000000388
10
-725.00000000000011
20
245.80000000000388
10
-725
20
250.00000000000384
10
-665
20
250.00000000000767
10
-665
20
245.80000000000388
10
-664
20
244.80000000000388
10
-626.00000000000011
20
244.80000000000388
10
-625.00000000000011
20
245.80000000000388
10
-625
20
250.00000000000384
10
-565
20
250.00000000000767
10
-565
20
245.80000000000388
10
-564
20
244.80000000000388
10
-526.00000000000011
20
244.80000000000388
10
-525.00000000000011
20
245.80000000000388
10
-525
20
250.00000000000384
10
-465
20
250.00000000000767
10
-465
20
245.80000000000388
10
-464.00000000000006
20
244.80000000000388
10
-426.00000000000023
20
244.80000000000388
10
-425.00000000000011
20
245.80000000000388
10
-425
20
250.00000000000384
10
-365
20
250.00000000000767
10
-365
20
245.80000000000388
10
-364.00000000000006
20
244.80000000000388
10
-326.00000000000023
20
244.80000000000388
10
-325.00000000000011
20
245.80000000000388
10
-325
20
250.00000000000384
10
-265
20
250.00000000000767
10
-265
20
245.80000000000786
10
-264.00000000000006
20
244.80000000000388
10
-226.00000000000009
20
244.80000000000388
10
-225.00000000000006
20
245.80000000000388
10
-225
20
250.00000000000384
10
-140.00000000000014
20
250.00000000000696
10
-140.00000000000009
20
245.80000000000388
10
-139.00000000000006
20
244.80000000000388
10
-101.00000000000009
20
244.80000000000388
10
-100.00000000000007
20
245.80000000000388
10
-100
20
250
10
-92.449999999999903
20
250
10
-92.449999999999903
20
464.80000000000359
10
-226.44999999999987
20
464.80000000000865
10
-227.4499999999999
20
463.80000000000382
10
-227.4499999999999
20
339.80000000000371
10
-232.5500000000001
20
339.80000000000371
10
-232.5500000000001
20
463.80000000000388
10
-233.55000000000013
20
464.80000000000388
10
-591.44999999999993
20
464.80000000000388
10
-592.44999999999993
20
463.80000000000393
10
-592.44999999999993
20
339.80000000000371
10
-597.55000000000007
20
339.80000000000371
10
-597.55000000000007
20
463.80000000000388
10
-598.55000000000007
20
464.80000000000388
0
CIRCLE
5
101
100
AcDbEntity
8
0
100
AcDbCircle
10
-1075
20
349.80000000000388
30
0
40
2.5499999999999545
210
0
220
0
230
1
0
CIRCLE
5
102
100
AcDbEntity
8
0
100
AcDbCircle
10
-612.55000000000007
20
299.80000000000388
30
0
40
2.5499999999999545
210
0
220
0
230
1
0
CIRCLE
5
103
100
AcDbEntity
8
0
100
AcDbCircle
10
-115.00000000000014
20
299.80000000000388
30
0
40
2.5500000000000256
210
0
220
0
230
1
0
CIRCLE
5
104
100
AcDbEntity
8
0
100
AcDbCircle
10
-977.54999999999995
20
299.80000000000388
30
0
40
2.5499999999999545
210
0
220
0
230
1
0
CIRCLE
5
105
100
AcDbEntity
8
0
100
AcDbCircle
10
-1075
20
299.80000000000388
30
0
40
2.5499999999999545
210
0
220
0
230
1
0
CIRCLE
5
106
100
AcDbEntity
8
0
100
AcDbCircle
10
-212.4499999999999
20
299.80000000000388
30
0
40
2.5500000000000256
210
0
220
0
230
1
0
CIRCLE
5
107
100
AcDbEntity
8
0
100
AcDbCircle
10
-115.00000000000014
20
349.80000000000388
30
0
40
2.5500000000000256
210
0
220
0
230
1
0
CIRCLE
5
108
100
AcDbEntity
8
0
100
AcDbCircle
10
-1075
20
399.80000000000388
30
0
40
2.5499999999999545
210
0
220
0
230
1
0
CIRCLE
5
109
100
AcDbEntity
8
0
100
AcDbCircle
10
-1075
20
449.80000000000388
30
0
40
2.5499999999999545
210
0
220
0
230
1
0
CIRCLE
5
110
100
AcDbEntity
8
0
100
AcDbCircle
10
-115.00000000000014
20
399.80000000000388
30
0
40
2.5500000000000256
210
0
220
0
230
1
0
CIRCLE
5
111
100
AcDbEntity
8
0
100
AcDbCircle
10
-115.00000000000014
20
449.80000000000388
30
0
40
2.5500000000000256
210
0
220
0
230
1
0
CIRCLE
5
112
100
AcDbEntity
8
0
100
AcDbCircle
10
-247.5500000000001
20
299.80000000000388
30
0
40
2.5500000000000256
210
0
220
0
230
1
0
CIRCLE
5
113
100
AcDbEntity
8
0
100
AcDbCircle
10
-942.45000000000005
20
299.80000000000388
30
0
40
2.5499999999999545
210
0
220
0
230
1
0
CIRCLE
5
114
100
AcDbEntity
8
0
100
AcDbCircle
10
-577.44999999999993
20
299.80000000000388
30
0
40
2.5499999999999545
210
0
220
0
230
1
0
LWPOLYLINE
5
115
100
AcDbEntity
8
0
100
AcDbPolyline
90
58
70
1
43
0.0
10
-1050.9999999998811
20
600
10
-1049.9999999998806
20
601
10
-1049.9999999998784
20
605.10000000000002
10
-964.99999999989291
20
605.0999999999899
10
-964.99999999988347
20
600.99999999998681
10
-963.99999999988131
20
600
10
-926.00000000125215
20
600
10
-925.0000000012526
20
601
10
-925.00000000125374
20
605.10000000000002
10
-865.00000000129376
20
605.0999999999965
10
-865.00000000126067
20
600.99999999999807
10
-864.0000000012526
20
600
10
-826.00000000125215
20
600
10
-825.0000000012526
20
601
10
-825.00000000125374
20
605.10000000000002
10
-765.00000000129376
20
605.0999999999965
10
-765.00000000126067
20
600.99999999999807
10
-764.0000000012526
20
600
10
-726.00000000125215
20
600
10
-725.0000000012526
20
601
10
-725.00000000125374
20
605.10000000000002
10
-665.00000000129376
20
605.0999999999965
10
-665.00000000126067
20
600.99999999999807
10
-664.0000000012526
20
600
10
-626.00000000125226
20
600
10
-625.0000000012526
20
601
10
-625.00000000125374
20
605.10000000000002
10
-565.00000000129376
20
605.0999999999965
10
-565.00000000126067
20
600.99999999999807
10
-564.00000000125249
20
600
10
-526.00000000125226
20
600
10
-525.0000000012526
20
601
10
-525.00000000125374
20
605.10000000000002
10
-465.00000000129376
20
605.0999999999965
10
-465.00000000126067
20
600.99999999999807
10
-464.00000000125249
20
600
10
-426.0000000012522
20
600
10
-425.00000000125254
20
601
10
-425.00000000125368
20
605.10000000000002
10
-365.00000000129376
20
605.0999999999965
10
-365.00000000126067
20
601
10
-364.00000000125249
20
600
10
-326.0000000012522
20
600
10
-325.00000000125254
20
601
10
-325.00000000125368
20
605.10000000000002
10
-265.00000000129376
20
605.0999999999965
10
-265.00000000126062
20
600.99999999999807
10
-264.0000000012526
20
600
10
-226.00000000000023
20
600
10
-225.00000000000085
20
600.99999999999966
10
-225.00000000000313
20
605.09999999999968
10
-140.00000000001222
20
605.10000000000593
10
-140.00000000000239
20
601
10
-139.00000000000006
20
600
10
-100
20
600
10
-100
20
750.00000000000011
10
-1089.9999999999898
20
969.99999999999989
10
-1090
20
600
0
CIRCLE
5
116
100
AcDbEntity
8
0
100
AcDbCircle
10
-1074.9999999998784
20
805
30
0
40
2.5499999999999545
210
0
220
0
230
1
0
CIRCLE
5
117
100
AcDbEntity
8
0
100
AcDbCircle
10
-1074.9999999998784
20
705
30
0
40
2.5499999999999545
210
0
220
0
230
1
0
CIRCLE
5
118
100
AcDbEntity
8
0
100
AcDbCircle
10
-1074.999999999977
20
855
30
0
40
2.5499999999999545
210
0
220
0
230
1
0
LWPOLYLINE
5
119
100
AcDbEntity
8
0
100
AcDbPolyline
90
4
70
1
43
0.0
10
-773.35835890508918
20
754.19663963110133
10
-724.57081108634441
20
743.25245497285846
10
-725.68711792148497
20
738.27612509534652
10
-774.47466574022974
20
749.22030975358939
0
LWPOLYLINE
5
120
100
AcDbEntity
8
0
100
AcDbPolyline
90
4
70
1
43
0.0
10
-472.4692889909511
20
686.70020478216543
10
-423.68174117220661
20
675.75602012392199
10
-424.7980480073474
20
670.77969024641015
10
-473.58559582609189
20
681.72387490465337
0
LWPOLYLINE
5
121
100
AcDbEntity
8
0
100
AcDbPolyline
90
4
70
1
43
0.0
10
-171.58021907681331
20
619.2037699332293
10
-122.79267125806882
20
608.25958527498642
10
-123.90897809320961
20
603.28325539747448
10
-172.69652591195438
20
614.22744005571747
0
CIRCLE
5
122
100
AcDbEntity
8
0
100
AcDbCircle
10
-114.99999999987836
20
705
30
0
40
2.5499999999999545
210
0
220
0
230
1
0
CIRCLE
5
123
100
AcDbEntity
8
0
100
AcDbCircle
10
-977.54999999988399
20
655
30
0
40
2.5499999999999545
210
0
220
0
230
1
0
CIRCLE
5
124
100
AcDbEntity
8
0
100
AcDbCircle
10
-114.99999999987836
20
655
30
0
40
2.5499999999999545
210
0
220
0
230
1
0
CIRCLE
5
125
100
AcDbEntity
8
0
100
AcDbCircle
10
-942.44999999987704
20
655
30
0
40
2.5499999999999545
210
0
220
0
230
1
0
CIRCLE
5
126
100
AcDbEntity
8
0
100
AcDbCircle
10
-1074.9999999998784
20
655
30
0
40
2.5499999999999545
210
0
220
0
230
1
0
CIRCLE
5
127
100
AcDbEntity
8
0
100
AcDbCircle
10
-1074.9999999998784
20
755
30
0
40
2.5499999999999545
210
0
220
0
230
1
0
CIRCLE
5
128
100
AcDbEntity
8
0
100
AcDbCircle
10
-1074.9999999999775
20
905
30
0
40
2.5499999999999545
210
0
220
0
230
1
0
LWPOLYLINE
5
129
100
AcDbEntity
8
0
100
AcDbPolyline
90
4
70
1
43
0.0
10
-873.65471554313501
20
776.69545124741319
10
-824.86716772439024
20
765.75126658917031
10
-825.9834745595308
20
760.77493671165826
10
-874.77102237827557
20
771.71912136990113
0
LWPOLYLINE
5
130
100
AcDbEntity
8
0
100
AcDbPolyline
90
4
70
1
43
0.0
10
-673.062002267043
20
731.69782801478937
10
-624.27445444829823
20
720.75364335654615
10
-625.39076128343879
20
715.77731347903409
10
-674.17830910218356
20
726.72149813727754
0
LWPOLYLINE
5
131
100
AcDbEntity
8
0
100
AcDbPolyline
90
4
70
1
43
0.0
10
-372.17293235290526
20
664.20139316585335
10
-323.38538453416049
20
653.25720850761036
10
-324.50169136930128
20
648.28087863009841
10
-373.28923918804605
20
659.22506328834129
0
LWPOLYLINE
5
132
100
AcDbEntity
8
0
100
AcDbPolyline
90
4
70
1
43
0.0
10
-271.87657571485943
20
641.70258154954149
10
-223.08902789611437
20
630.75839689129839
10
-224.20533473125545
20
625.78206701378645
10
-272.9928825500005
20
636.72625167202955
0
LWPOLYLINE
5
133
100
AcDbEntity
8
0
100
AcDbPolyline
90
4
70
1
43
0.0
10
-572.76564562899716
20
709.19901639847717
10
-523.97809781025217
20
698.25483174023407
10
-525.09440464539296
20
693.27850186272201
10
-573.88195246413807
20
704.22268652096545
0
LWPOLYLINE
5
134
100
AcDbEntity
8
0
100
AcDbPolyline
90
12
70
1
43
0.0
10
-973.95107218118119
20
799.1942628637255
10
-962.54999999988036
20
796.63673651053386
10
-962.54999999988036
20
849.99999999997669
10
-957.4499999998767
20
849.99999999997408
10
-957.44999999987738
20
795.49268758304038
10
-925.16352436243608
20
788.25007820548205
10
-926.27983119757664
20
783.27374832797034
10
-957.44999999987749
20
790.2659440511195
10
-957.4499999998767
20
695.00000000010436
10
-962.54999999987717
20
695.00000000012835
10
-962.54999999988036
20
791.40999297861288
10
-975.06737901632164
20
794.21793298621321
0
LWPOLYLINE
5
135
100
AcDbEntity
8
0
100
AcDbPolyline
90
4
70
1
43
0.0
10
-1074.247428819227
20
821.69307448003769
10
-1025.4598810004818
20
810.74888982179414
10
-1026.5761878356227
20
805.77255994428242
10
-1075.3637356543675
20
816.7167446025253
0
LWPOLYLINE
5
136
100
AcDbEntity
8
0
100
AcDbPolyline
90
4
70
1
43
0.0
10
-1041.0782003145293
20
144.89999999999995
10
-1091.0782003145293
20
144.89999999999995
10
-1091.0782003145293
20
150.00000000000014
10
-1041.0782003145293
20
150.00000000000014
0
LWPOLYLINE
5
137
100
AcDbEntity
8
0
100
AcDbPolyline
90
4
70
1
43
0.0
10
-835.50042253675144
20
150.00000000000014
10
-835.50042253675144
20
144.89999999999995
10
-885.50042253675144
20
144.89999999999995
10
-885.50042253675144
20
150.00000000000014
0
CIRCLE
5
138
100
AcDbEntity
8
0
100
AcDbCircle
10
-1091.0782003145293
20
59.999999999999645
30
0
40
2.5499999999999545
210
0
220
0
230
1
0
CIRCLE
5
139
100
AcDbEntity
8
0
100
AcDbCircle
10
-1091.0782003145293
20
109.99999999999964
30
0
40
2.5499999999999545
210
0
220
0
230
1
0
CIRCLE
5
140
100
AcDbEntity
8
0
100
AcDbCircle
10
-115.97820031452926
20
59.999999999999645
30
0
40
2.5500000000000078
210
0
220
0
230
1
0
CIRCLE
5
141
100
AcDbEntity
8
0
100
AcDbCircle
10
-121.07820031452863
20
154.99999999999966
30
0
40
2.5500000000000078
210
0
220
0
230
1
0
CIRCLE
5
142
100
AcDbEntity
8
0
100
AcDbCircle
10
-1085.978200314531
20
154.99999999999966
30
0
40
2.5499999999999545
210
0
220
0
230
1
0
LWPOLYLINE
5
143
100
AcDbEntity
8
0
100
AcDbPolyline
90
4
70
1
43
0.0
10
-115.97820031452926
20
150.00000000000014
10
-115.97820031452926
20
144.89999999999995
10
-165.97820031452926
20
144.89999999999995
10
-165.97820031452926
20
150.00000000000014
0
CIRCLE
5
144
100
AcDbEntity
8
0
100
AcDbCircle
10
-115.97820031452926
20
109.99999999999964
30
0
40
2.5500000000000078
210
0
220
0
230
1
0
LWPOLYLINE
5
145
100
AcDbEntity
8
0
100
AcDbPolyline
90
4
70
1
43
0.0
10
-218.76708920341812
20
150.00000000000014
10
-218.76708920341812
20
144.89999999999995
10
-268.7670892034181
20
144.89999999999995
10
-268.7670892034181
20
150.00000000000014
0
LWPOLYLINE
5
146
100
AcDbEntity
8
0
100
AcDbPolyline
90
4
70
1
43
0.0
10
-321.55597809230699
20
150.00000000000014
10
-321.55597809230699
20
144.89999999999995
10
-371.55597809230699
20
144.89999999999995
10
-371.55597809230699
20
150.00000000000014
0
LWPOLYLINE
5
147
100
AcDbEntity
8
0
100
AcDbPolyline
90
4
70
1
43
0.0
10
-424.34486698119593
20
150.00000000000014
10
-424.34486698119593
20
144.89999999999995
10
-474.34486698119593
20
144.89999999999995
10
-474.34486698119593
20
150.00000000000014
0
LWPOLYLINE
5
148
100
AcDbEntity
8
0
100
AcDbPolyline
90
4
70
1
43
0.0
10
-527.13375587008488
20
150.00000000000014
10
-527.13375587008488
20
144.89999999999995
10
-577.13375587008488
20
144.89999999999995
10
-577.13375587008488
20
150.00000000000014
0
LWPOLYLINE
5
149
100
AcDbEntity
8
0
100
AcDbPolyline
90
4
70
1
43
0.0
10
-629.92264475897377
20
150.00000000000014
10
-629.92264475897377
20
144.89999999999995
10
-679.92264475897377
20
144.89999999999995
10
-679.92264475897377
20
150.00000000000014
0
LWPOLYLINE
5
150
100
AcDbEntity
8
0
100
AcDbPolyline
90
4
70
1
43
0.0
10
-732.71153364786255
20
150.00000000000014
10
-732.71153364786255
20
144.89999999999995
10
-782.71153364786255
20
144.89999999999995
10
-782.71153364786255
20
150.00000000000014
0
LWPOLYLINE
5
151
100
AcDbEntity
8
0
100
AcDbPolyline
90
4
70
1
43
0.0
10
-938.28931142564045
20
150.00000000000014
10
-938.28931142564045
20
144.89999999999995
10
-988.28931142564045
20
144.89999999999995
10
-988.28931142564045
20
150.00000000000014
0
LWPOLYLINE
5
152
100
AcDbEntity
8
0
100
AcDbPolyline
90
8
70
1
43
0.0
10
-1100.978200314531
20
164.99999999999966
10
-1100.978200314531
20
150.00000000000014
10
-1106.0782003145293
20
150.00000000000028
10
-1106.0782003145293
20
-3.5527136788005009e-13
10
-100.97820031452926
20
-3.5527136788005009e-13
10
-100.97820031452926
20
150.00000000000006
10
-106.0782003145286
20
150.00000000000006
10
-106.0782003145286
20
164.99999999999966
0
LWPOLYLINE
5
153
100
AcDbEntity
8
0
100
AcDbPolyline
90
124
70
1
43
0.0
10
-2229.0999999999999
20
990.10000000000002
10
-2230.0999999999999
20
989.10000000000014
10
-2230.0999999999999
20
941.09999999999991
10
-2229.0999999999995
20
940.09999999999991
10
-2219.8999999999996
20
940.10000000000002
10
-2219.8999999999996
20
887.31111111111113
10
-2229.0999999999999
20
887.31111111111113
10
-2230.0999999999999
20
886.31111111111125
10
-2230.0999999999999
20
838.31111111111113
10
-2229.0999999999995
20
837.31111111111113
10
-2219.8999999999996
20
837.31111111111113
10
-2219.8999999999996
20
784.52222222222213
10
-2229.0999999999999
20
784.52222222222235
10
-2230.0999999999999
20
783.52222222222235
10
-2230.0999999999999
20
735.52222222222213
10
-2229.0999999999995
20
734.52222222222213
10
-2219.8999999999996
20
734.52222222222213
10
-2219.8999999999996
20
681.73333333333335
10
-2229.0999999999999
20
681.73333333333335
10
-2230.0999999999999
20
680.73333333333335
10
-2230.0999999999999
20
632.73333333333335
10
-2229.0999999999995
20
631.73333333333335
10
-2219.8999999999996
20
631.73333333333335
10
-2219.8999999999996
20
578.94444444444446
10
-2229.0999999999999
20
578.94444444444446
10
-2230.0999999999999
20
577.94444444444457
10
-2230.0999999999999
20
529.94444444444446
10
-2229.0999999999995
20
528.94444444444446
10
-2219.8999999999996
20
528.94444444444446
10
-2219.8999999999996
20
476.15555555555557
10
-2229.0999999999999
20
476.15555555555557
10
-2230.0999999999999
20
475.15555555555568
10
-2230.0999999999999
20
427.15555555555562
10
-2229.0999999999995
20
426.15555555555557
10
-2219.8999999999996
20
426.15555555555557
10
-2219.8999999999996
20
373.36666666666667
10
-2229.0999999999999
20
373.36666666666667
10
-2230.0999999999999
20
372.36666666666667
10
-2230.0999999999999
20
324.36666666666667
10
-2229.0999999999995
20
323.36666666666667
10
-2219.8999999999996
20
323.36666666666667
10
-2219.8999999999996
20
270.57777777777773
10
-2229.0999999999999
20
270.57777777777773
10
-2230.0999999999999
20
269.57777777777773
10
-2230.0999999999999
20
221.57777777777773
10
-2229.0999999999995
20
220.57777777777773
10
-2219.8999999999996
20
220.57777777777773
10
-2219.8999999999996
20
167.78888888888886
10
-2229.0999999999999
20
167.78888888888886
10
-2230.0999999999999
20
166.78888888888883
10
-2230.0999999999999
20
118.78888888888886
10
-2229.0999999999995
20
117.78888888888886
10
-2219.8999999999996
20
117.78888888888886
10
-2219.8999999999996
20
65
10
-2229.0999999999999
20
65
10
-2230.0999999999999
20
64
10
-2230.0999999999999
20
15.999999999999996
10
-2229.0999999999995
20
15
10
-2219.8999999999996
20
15
10
-2219.8999999999996
20
-1.4210854715202004e-13
10
-1224.9999999999998
20
-1.4210854715202004e-13
10
-1225
20
15
10
-1215.7999999999997
20
15
10
-1214.7999999999997
20
16
10
-1214.7999999999997
20
64
10
-1215.7999999999997
20
65
10
-1224.9999999999998
20
65
10
-1225
20
117.78888888888886
10
-1215.7999999999997
20
117.78888888888886
10
-1214.7999999999997
20
118.78888888888888
10
-1214.7999999999997
20
166.78888888888883
10
-1215.7999999999997
20
167.78888888888886
10
-1224.9999999999998
20
167.78888888888886
10
-1225
20
220.57777777777773
10
-1215.7999999999997
20
220.57777777777773
10
-1214.7999999999997
20
221.57777777777773
10
-1214.7999999999997
20
269.57777777777773
10
-1215.7999999999997
20
270.57777777777773
10
-1224.9999999999998
20
270.57777777777773
10
-1225
20
323.36666666666667
10
-1215.7999999999997
20
323.36666666666667
10
-1214.7999999999997
20
324.36666666666667
10
-1214.7999999999997
20
372.36666666666667
10
-1215.7999999999997
20
373.36666666666667
10
-1224.9999999999998
20
373.36666666666667
10
-1225
20
426.15555555555557
10
-1215.7999999999997
20
426.15555555555557
10
-1214.7999999999997
20
427.15555555555557
10
-1214.7999999999997
20
475.15555555555557
10
-1215.7999999999997
20
476.15555555555557
10
-1224.9999999999998
20
476.15555555555557
10
-1225
20
528.94444444444446
10
-1215.7999999999997
20
528.94444444444446
10
-1214.7999999999997
20
529.94444444444434
10
-1214.7999999999997
20
577.94444444444446
10
-1215.7999999999997
20
578.94444444444446
10
-1224.9999999999998
20
578.94444444444446
10
-1225
20
631.73333333333335
10
-1215.7999999999997
20
631.73333333333335
10
-1214.7999999999997
20
632.73333333333323
10
-1214.7999999999997
20
680.73333333333335
10
-1215.7999999999997
20
681.73333333333335
10
-1224.9999999999998
20
681.73333333333335
10
-1225
20
734.52222222222213
10
-1215.7999999999997
20
734.52222222222213
10
-1214.7999999999997
20
735.52222222222213
10
-1214.7999999999997
20
783.52222222222224
10
-1215.7999999999997
20
784.52222222222213
10
-1224.9999999999998
20
784.52222222222235
10
-1225
20
837.31111111111113
10
-1215.7999999999997
20
837.31111111111113
10
-1214.7999999999997
20
838.31111111111113
10
-1214.7999999999997
20
886.31111111111125
10
-1215.7999999999997
20
887.31111111111113
10
-1224.9999999999998
20
887.31111111111113
10
-1225
20
940.09999999999991
10
-1215.7999999999997
20
940.10000000000002
10
-1214.7999999999997
20
941.10000000000002
10
-1214.7999999999997
20
989.10000000000014
10
-1215.7999999999997
20
990.10000000000002
10
-1224.9999999999998
20
990.10000000000002
10
-1224.9999999999998
20
1005.1
10
-2219.8999999999996
20
1005.1
10
-2219.8999999999996
20
990.10000000000002
0
LWPOLYLINE
5
154
100
AcDbEntity
8
0
100
AcDbPolyline
90
4
70
1
43
0.0
10
-1803.052284143547
20
-249.84784312518738
10
-1700
20
-250
10
-1699.8385368904878
20
-140.644821269598
10
-1802.8908210340344
20
-140.49266439478592
0
LWPOLYLINE
5
155
100
AcDbEntity
8
0
100
AcDbPolyline
90
4
70
1
43
0.0
10
-85.925412707679385
20
10.279411335786968
10
17.126871435867486
20
10.127254460974342
10
17.288334545379769
20
119.48243319137623
10
-85.763949598166818
20
119.63459006618832
0
LWPOLYLINE
5
156
100
AcDbEntity
8
0
100
AcDbPolyline
90
4
70
1
43
0.0
10
-85.925412707679385
20
310.27941133578702
10
17.126871435867486
20
310.12725446097437
10
17.288334545379769
20
419.48243319137623
10
-85.763949598166818
20
419.63459006618837
0
LWPOLYLINE
5
157
100
AcDbEntity
8
0
100
AcDbPolyline
90
4
70
1
43
0.0
10
-85.925412707679385
20
610.2794113357869
10
17.126871435867486
20
610.12725446097431
10
17.288334545379769
20
719.48243319137623
10
-85.763949598166818
20
719.63459006618814
0
LINE
5
158
100
AcDbEntity
8
0
100
AcDbLine
10
-1802.9994938590537
20
-214.09422105361926
30
0
11
-1790.718782975365
21
-212.47524581810092
31
0
0
SPLINE
5
159
100
AcDbEntity
8
0
100
AcDbSpline
70
0
71
2
72
6
73
3
74
0
42
0.000000001
43
0.0000000001
44
0.0000000001
40
0
40
0
40
0
40
1
40
1
40
1
10
-1790.718782975365
20
-212.47524581810092
30
0
10
-1788.6195961164185
20
-222.91492013907771
30
0
10
-1783.54454612529
20
-227.52677715109581
30
0
0
SPLINE
5
160
100
AcDbEntity
8
0
100
AcDbSpline
70
0
71
2
72
6
73
3
74
0
42
0.000000001
43
0.0000000001
44
0.0000000001
40
0
40
0
40
0
40
1
40
1
40
1
10
-1783.54454612529
20
-227.52677715109581
30
0
10
-1778.4694937640588
20
-232.13864370336694
30
0
10
-1771.1707293848644
20
-232.14942034152844
30
0
0
SPLINE
5
161
100
AcDbEntity
8
0
100
AcDbSpline
70
0
71
2
72
6
73
3
74
0
42
0.000000001
43
0.0000000001
44
0.0000000001
40
0
40
0
40
0
40
1
40
1
40
1
10
-1771.1707293848644
20
-232.14942034152844
30
0
10
-1762.5077091570845
20
-232.16221130579726
30
0
10
-1756.530229482345
20
-226.16830873518541
30
0
0
SPLINE
5
162
100
AcDbEntity
8
0
100
AcDbSpline
70
0
71
2
72
6
73
3
74
0
42
0.000000001
43
0.0000000001
44
0.0000000001
40
0
40
0
40
0
40
1
40
1
40
1
10
-1756.530229482345
20
-226.16830873518541
30
0
10
-1750.5527545618916
20
-220.17439662080034
30
0
10
-1750.5396614545152
20
-211.30674194963461
30
0
0
SPLINE
5
163
100
AcDbEntity
8
0
100
AcDbSpline
70
0
71
2
72
6
73
3
74
0
42
0.000000001
43
0.0000000001
44
0.0000000001
40
0
40
0
40
0
40
1
40
1
40
1
10
-1750.5396614545152
20
-211.30674194963461
30
0
10
-1750.5271726333538
20
-202.84835616524015
30
0
10
-1756.0442950823654
20
-197.34907140275851
30
0
0
SPLINE
5
164
100
AcDbEntity
8
0
100
AcDbSpline
70
0
71
2
72
6
73
3
74
0
42
0.000000001
43
0.0000000001
44
0.0000000001
40
0
40
0
40
0
40
1
40
1
40
1
10
-1756.0442950823654
20
-197.34907140275851
30
0
10
-1761.5614222997431
20
-191.84978663323636
30
0
10
-1770.0880147968996
20
-191.83719710474656
30
0
0
SPLINE
5
165
100
AcDbEntity
8
0
100
AcDbSpline
70
0
71
2
72
6
73
3
74
0
42
0.000000001
43
0.0000000001
44
0.0000000001
40
0
40
0
40
0
40
1
40
1
40
1
10
-1770.0880147968996
20
-191.83719710474656
30
0
10
-1773.5668647074008
20
-191.83206057686925
30
0
10
-1778.7530469701242
20
-193.18866437676687
30
0
0
LINE
5
166
100
AcDbEntity
8
0
100
AcDbLine
10
-1778.7530469701242
20
-193.18866437676687
30
0
11
-1777.3728803396828
21
-182.41306440965838
31
0
0
SPLINE
5
167
100
AcDbEntity
8
0
100
AcDbSpline
70
0
71
2
72
6
73
3
74
0
42
0.000000001
43
0.0000000001
44
0.0000000001
40
0
40
0
40
0
40
1
40
1
40
1
10
-1777.3728803396828
20
-182.41306440965838
30
0
10
-1776.1452512662759
20
-182.55130026576398
30
0
10
-1775.3949106687628
20
-182.55240814494698
30
0
0
SPLINE
5
168
100
AcDbEntity
8
0
100
AcDbSpline
70
0
71
2
72
6
73
3
74
0
42
0.000000001
43
0.0000000001
44
0.0000000001
40
0
40
0
40
0
40
1
40
1
40
1
10
-1775.3949106687628
20
-182.55240814494698
30
0
10
-1767.5504449038076
20
-182.56399051214331
30
0
10
-1761.2688312243881
20
-178.48049124151032
30
0
0
SPLINE
5
169
100
AcDbEntity
8
0
100
AcDbSpline
70
0
71
2
72
6
73
3
74
0
42
0.000000001
43
0.0000000001
44
0.0000000001
40
0
40
0
40
0
40
1
40
1
40
1
10
-1761.2688312243881
20
-178.48049124151032
30
0
10
-1754.9872127766023
20
-174.39699197791788
30
0
10
-1754.9746232481125
20
-165.87039948076122
30
0
0
SPLINE
5
170
100
AcDbEntity
8
0
100
AcDbSpline
70
0
71
2
72
6
73
3
74
0
42
0.000000001
43
0.0000000001
44
0.0000000001
40
0
40
0
40
0
40
1
40
1
40
1
10
-1754.9746232481125
20
-165.87039948076122
30
0
10
-1754.9646523354656
20
-159.11733410314457
30
0
10
-1759.5283608479838
20
-154.67675877809452
30
0
0
SPLINE
5
171
100
AcDbEntity
8
0
100
AcDbSpline
70
0
71
2
72
6
73
3
74
0
42
0.000000001
43
0.0000000001
44
0.0000000001
40
0
40
0
40
0
40
1
40
1
40
1
10
-1759.5283608479838
20
-154.67675877809452
30
0
10
-1764.0920693605017
20
-150.2361834530445
30
0
10
-1771.3226198743846
20
-150.22550753277247
30
0
0
SPLINE
5
172
100
AcDbEntity
8
0
100
AcDbSpline
70
0
71
2
72
6
73
3
74
0
42
0.000000001
43
0.0000000001
44
0.0000000001
40
0
40
0
40
0
40
1
40
1
40
1
10
-1771.3226198743846
20
-150.22550753277247
30
0
10
-1778.4849589071384
20
-150.21493232686967
30
0
10
-1783.2664980619306
20
-154.70991623911954
30
0
0
SPLINE
5
173
100
AcDbEntity
8
0
100
AcDbSpline
70
0
71
2
72
6
73
3
74
0
42
0.000000001
43
0.0000000001
44
0.0000000001
40
0
40
0
40
0
40
1
40
1
40
1
10
-1783.2664980619306
20
-154.70991623911954
30
0
10
-1788.0480372308036
20
-159.20490968810216
30
0
10
-1789.4255876366256
20
-168.20698730051677
30
0
0
LINE
5
174
100
AcDbEntity
8
0
100
AcDbLine
10
-1789.4255876366256
20
-168.20698730051677
30
0
11
-1801.7006596021215
21
-166.00604806558167
31
0
0
SPLINE
5
175
100
AcDbEntity
8
0
100
AcDbSpline
70
0
71
2
72
6
73
3
74
0
42
0.000000001
43
0.0000000001
44
0.0000000001
40
0
40
0
40
0
40
1
40
1
40
1
10
-1801.7006596021215
20
-166.00604806558167
30
0
10
-1799.4314087598141
20
-153.66285996803424
30
0
10
-1791.4404963821071
20
-146.88747503349157
30
0
0
SPLINE
5
176
100
AcDbEntity
8
0
100
AcDbSpline
70
0
71
2
72
6
73
3
74
0
42
0.000000001
43
0.0000000001
44
0.0000000001
40
0
40
0
40
0
40
1
40
1
40
1
10
-1791.4404963821071
20
-146.88747503349157
30
0
10
-1783.4495840044001
20
-140.11209009894887
30
0
10
-1771.5805645589994
20
-140.12961472657759
30
0
0
SPLINE
5
177
100
AcDbEntity
8
0
100
AcDbSpline
70
0
71
2
72
6
73
3
74
0
42
0.000000001
43
0.0000000001
44
0.0000000001
40
0
40
0
40
0
40
1
40
1
40
1
10
-1771.5805645589994
20
-140.12961472657759
30
0
10
-1763.3950342358517
20
-140.14170067618079
30
0
10
-1756.5107327880805
20
-143.66483343699792
30
0
0
SPLINE
5
178
100
AcDbEntity
8
0
100
AcDbSpline
70
0
71
2
72
6
73
3
74
0
42
0.000000001
43
0.0000000001
44
0.0000000001
40
0
40
0
40
0
40
1
40
1
40
1
10
-1756.5107327880805
20
-143.66483343699792
30
0
10
-1749.6264360945947
20
-147.18795665404181
30
0
10
-1745.9860164677796
20
-153.26428600448128
30
0
0
SPLINE
5
179
100
AcDbEntity
8
0
100
AcDbSpline
70
0
71
2
72
6
73
3
74
0
42
0.000000001
43
0.0000000001
44
0.0000000001
40
0
40
0
40
0
40
1
40
1
40
1
10
-1745.9860164677796
20
-153.26428600448128
30
0
10
-1742.3455968268831
20
-159.34060581818798
30
0
10
-1742.3556684538994
20
-166.16188267693315
30
0
0
SPLINE
5
180
100
AcDbEntity
8
0
100
AcDbSpline
70
0
71
2
72
6
73
3
74
0
42
0.000000001
43
0.0000000001
44
0.0000000001
40
0
40
0
40
0
40
1
40
1
40
1
10
-1742.3556684538994
20
-166.16188267693315
30
0
10
-1742.3652365020289
20
-172.6420973616693
30
0
10
-1745.851944658323
20
-177.95755172562457
30
0
0
SPLINE
5
181
100
AcDbEntity
8
0
100
AcDbSpline
70
0
71
2
72
6
73
3
74
0
42
0.000000001
43
0.0000000001
44
0.0000000001
40
0
40
0
40
0
40
1
40
1
40
1
10
-1745.851944658323
20
-177.95755172562457
30
0
10
-1749.3386480532911
20
-183.27301086498676
30
0
10
-1756.1645578575065
20
-186.40072459027948
30
0
0
SPLINE
5
182
100
AcDbEntity
8
0
100
AcDbSpline
70
0
71
2
72
6
73
3
74
0
42
0.000000001
43
0.0000000001
44
0.0000000001
40
0
40
0
40
0
40
1
40
1
40
1
10
-1756.1645578575065
20
-186.40072459027948
30
0
10
-1747.2999199053754
20
-188.46020028548338
30
0
10
-1742.3981203596254
20
-194.91356318219226
30
0
0
SPLINE
5
183
100
AcDbEntity
8
0
100
AcDbSpline
70
0
71
2
72
6
73
3
74
0
42
0.000000001
43
0.0000000001
44
0.0000000001
40
0
40
0
40
0
40
1
40
1
40
1
10
-1742.3981203596254
20
-194.91356318219226
30
0
10
-1737.4963207927535
20
-201.366911773802
30
0
10
-1737.5106225007225
20
-211.05312329197557
30
0
0
SPLINE
5
184
100
AcDbEntity
8
0
100
AcDbSpline
70
0
71
2
72
6
73
3
74
0
42
0.000000001
43
0.0000000001
44
0.0000000001
40
0
40
0
40
0
40
1
40
1
40
1
10
-1737.5106225007225
20
-211.05312329197557
30
0
10
-1737.5299600116391
20
-224.14996608697211
30
0
10
-1747.0931894244591
20
-233.2422725908134
30
0
0
SPLINE
5
185
100
AcDbEntity
8
0
100
AcDbSpline
70
0
71
2
72
6
73
3
74
0
42
0.000000001
43
0.0000000001
44
0.0000000001
40
0
40
0
40
0
40
1
40
1
40
1
10
-1747.0931894244591
20
-233.2422725908134
30
0
10
-1756.6564188231985
20
-242.33456955792184
30
0
10
-1771.2539475815875
20
-242.31301628159883
30
0
0
SPLINE
5
186
100
AcDbEntity
8
0
100
AcDbSpline
70
0
71
2
72
6
73
3
74
0
42
0.000000001
43
0.0000000001
44
0.0000000001
40
0
40
0
40
0
40
1
40
1
40
1
10
-1771.2539475815875
20
-242.31301628159883
30
0
10
-1784.419009010262
20
-242.29357804575238
30
0
10
-1793.1045526219709
20
-234.4362781118931
30
0
0
SPLINE
5
187
100
AcDbEntity
8
0
100
AcDbSpline
70
0
71
2
72
6
73
3
74
0
42
0.000000001
43
0.0000000001
44
0.0000000001
40
0
40
0
40
0
40
1
40
1
40
1
10
-1793.1045526219709
20
-234.4362781118931
30
0
10
-1801.7900956235528
20
-226.57896864218117
30
0
10
-1802.9994938590537
20
-214.09422105361926
30
0
0
LINE
5
188
100
AcDbEntity
8
0
100
AcDbLine
10
-19.659596994198871
20
31.337704411191556
30
0
11
-19.677020896897556
21
19.536903599468939
31
0
0
LINE
5
189
100
AcDbEntity
8
0
100
AcDbLine
10
-19.677020896897552
20
19.536903599468936
30
0
11
-85.775173964785012
21
19.63449763617837
31
0
0
SPLINE
5
190
100
AcDbEntity
8
0
100
AcDbSpline
70
0
71
2
72
6
73
3
74
0
42
0.000000001
43
0.0000000001
44
0.0000000001
40
0
40
0
40
0
40
1
40
1
40
1
10
-85.775173964785012
20
19.634497636178381
30
0
10
-85.905053055559932
20
24.068526404459973
30
0
10
-84.330117106581
20
28.15897509285854
30
0
0
SPLINE
5
191
100
AcDbEntity
8
0
100
AcDbSpline
70
0
71
2
72
6
73
3
74
0
42
0.000000001
43
0.0000000001
44
0.0000000001
40
0
40
0
40
0
40
1
40
1
40
1
10
-84.330117106581
20
28.15897509285854
30
0
10
-81.796274304560498
20
34.908313969288841
30
0
10
-76.227266714163676
20
41.448531761810727
30
0
0
SPLINE
5
192
100
AcDbEntity
8
0
100
AcDbSpline
70
0
71
2
72
6
73
3
74
0
42
0.000000001
43
0.0000000001
44
0.0000000001
40
0
40
0
40
0
40
1
40
1
40
1
10
-76.227266714163676
20
41.448531761810727
30
0
10
-70.658258541802056
20
47.988740016719774
30
0
10
-60.140805887179063
20
56.568038463610065
30
0
0
SPLINE
5
193
100
AcDbEntity
8
0
100
AcDbSpline
70
0
71
2
72
6
73
3
74
0
42
0.000000001
43
0.0000000001
44
0.0000000001
40
0
40
0
40
0
40
1
40
1
40
1
10
-60.140805887179063
20
56.568038463610065
30
0
10
-43.818216332497414
20
69.913670303382702
30
0
10
-38.07681500362893
20
77.715570165867817
30
0
0
SPLINE
5
194
100
AcDbEntity
8
0
100
AcDbSpline
70
0
71
2
72
6
73
3
74
0
42
0.000000001
43
0.0000000001
44
0.0000000001
40
0
40
0
40
0
40
1
40
1
40
1
10
-38.07681500362893
20
77.715570165867817
30
0
10
-32.335413674760446
20
85.51747002835296
30
0
10
-32.325140619005843
20
92.475169849355154
30
0
0
SPLINE
5
195
100
AcDbEntity
8
0
100
AcDbSpline
70
0
71
2
72
6
73
3
74
0
42
0.000000001
43
0.0000000001
44
0.0000000001
40
0
40
0
40
0
40
1
40
1
40
1
10
-32.325140619005843
20
92.475169849355154
30
0
10
-32.314363977324099
20
99.773936612732797
30
0
10
-37.525237398779964
20
104.7952734840338
30
0
0
SPLINE
5
196
100
AcDbEntity
8
0
100
AcDbSpline
70
0
71
2
72
6
73
3
74
0
42
0.000000001
43
0.0000000001
44
0.0000000001
40
0
40
0
40
0
40
1
40
1
40
1
10
-37.525237398779964
20
104.7952734840338
30
0
10
-42.736106037788446
20
109.81661988502707
30
0
10
-51.126275572688051
20
109.82900798477844
30
0
0
SPLINE
5
197
100
AcDbEntity
8
0
100
AcDbSpline
70
0
71
2
72
6
73
3
74
0
42
0.000000001
43
0.0000000001
44
0.0000000001
40
0
40
0
40
0
40
1
40
1
40
1
10
-51.126275572688051
20
109.82900798477844
30
0
10
-59.99393262803693
20
109.84210109567516
30
0
10
-65.322384167446842
20
104.52935653223973
30
0
0
SPLINE
5
198
100
AcDbEntity
8
0
100
AcDbSpline
70
0
71
2
72
6
73
3
74
0
42
0.000000001
43
0.0000000001
44
0.0000000001
40
0
40
0
40
0
40
1
40
1
40
1
10
-65.322384167446842
20
104.52935653223973
30
0
10
-70.650833308592553
20
99.216621502016807
30
0
10
-70.73294482526444
20
89.803361392853077
30
0
0
LINE
5
199
100
AcDbEntity
8
0
100
AcDbLine
10
-70.73294482526444
20
89.803361392853077
30
0
11
-83.350390067868716
21
91.118035881178599
31
0
0
SPLINE
5
200
100
AcDbEntity
8
0
100
AcDbSpline
70
0
71
2
72
6
73
3
74
0
42
0.000000001
43
0.0000000001
44
0.0000000001
40
0
40
0
40
0
40
1
40
1
40
1
10
-83.350390067868716
20
91.118035881178599
30
0
10
-82.033499815896889
20
105.23616589508357
30
0
10
-73.564191083112917
20
112.62476345021659
30
0
0
SPLINE
5
201
100
AcDbEntity
8
0
100
AcDbSpline
70
0
71
2
72
6
73
3
74
0
42
0.000000001
43
0.0000000001
44
0.0000000001
40
0
40
0
40
0
40
1
40
1
40
1
10
-73.564191083112917
20
112.62476345021659
30
0
10
-65.094882364409955
20
120.0133514686168
30
0
10
-50.838418164213302
20
119.99230177470068
30
0
0
SPLINE
5
202
100
AcDbEntity
8
0
100
AcDbSpline
70
0
71
2
72
6
73
3
74
0
42
0.000000001
43
0.0000000001
44
0.0000000001
40
0
40
0
40
0
40
1
40
1
40
1
10
-50.838418164213302
20
119.99230177470068
30
0
10
-36.445528617576414
20
119.97105064852585
30
0
10
-28.067142882131797
20
111.97777143737879
30
0
0
SPLINE
5
203
100
AcDbEntity
8
0
100
AcDbSpline
70
0
71
2
72
6
73
3
74
0
42
0.000000001
43
0.0000000001
44
0.0000000001
40
0
40
0
40
0
40
1
40
1
40
1
10
-28.067142882131797
20
111.97777143737879
30
0
10
-19.688761915053572
20
103.98449223327222
30
0
10
-19.706185824792762
20
92.18368665318323
30
0
0
SPLINE
5
204
100
AcDbEntity
8
0
100
AcDbSpline
70
0
71
2
72
6
73
3
74
0
42
0.000000001
43
0.0000000001
44
0.0000000001
40
0
40
0
40
0
40
1
40
1
40
1
10
-19.706185824792762
20
92.18368665318323
30
0
10
-19.715048858256694
20
86.180961873079553
30
0
10
-22.179265970456406
20
80.386506853750888
30
0
0
SPLINE
5
205
100
AcDbEntity
8
0
100
AcDbSpline
70
0
71
2
72
6
73
3
74
0
42
0.000000001
43
0.0000000001
44
0.0000000001
40
0
40
0
40
0
40
1
40
1
40
1
10
-22.179265970456406
20
80.386506853750888
30
0
10
-24.643487858063011
20
74.592047073096353
30
0
10
-30.348716378892142
20
68.188458439056291
30
0
0
SPLINE
5
206
100
AcDbEntity
8
0
100
AcDbSpline
70
0
71
2
72
6
73
3
74
0
42
0.000000001
43
0.0000000001
44
0.0000000001
40
0
40
0
40
0
40
1
40
1
40
1
10
-30.348716378892142
20
68.188458439056291
30
0
10
-36.053949668087654
20
61.784869812056741
30
0
10
-49.303742428409194
20
50.617516052593245
30
0
0
SPLINE
5
207
100
AcDbEntity
8
0
100
AcDbSpline
70
0
71
2
72
6
73
3
74
0
42
0.000000001
43
0.0000000001
44
0.0000000001
40
0
40
0
40
0
40
1
40
1
40
1
10
-49.303742428409194
20
50.617516052593245
30
0
10
-60.367902434474843
20
41.356898984959614
30
0
10
-63.510574912921172
20
38.053210726270486
30
0
0
SPLINE
5
208
100
AcDbEntity
8
0
100
AcDbSpline
70
0
71
2
72
6
73
3
74
0
42
0.000000001
43
0.0000000001
44
0.0000000001
40
0
40
0
40
0
40
1
40
1
40
1
10
-63.510574912921172
20
38.053210726270486
30
0
10
-66.6532449931033
20
34.749532000793906
30
0
10
-68.704562683589799
20
31.410119387401068
30
0
0
LINE
5
209
100
AcDbEntity
8
0
100
AcDbLine
10
-68.704562683589799
20
31.410119387401068
30
0
11
-19.659596994198871
21
31.337704411191559
31
0
0
LINE
5
210
100
AcDbEntity
8
0
100
AcDbLine
10
-19.659596994198871
20
331.33770441119157
30
0
11
-19.677020896897556
21
319.53690359946893
31
0
0
LINE
5
211
100
AcDbEntity
8
0
100
AcDbLine
10
-19.677020896897552
20
319.53690359946899
30
0
11
-85.775173964785012
21
319.63449763617842
31
0
0
SPLINE
5
212
100
AcDbEntity
8
0
100
AcDbSpline
70
0
71
2
72
6
73
3
74
0
42
0.000000001
43
0.0000000001
44
0.0000000001
40
0
40
0
40
0
40
1
40
1
40
1
10
-85.775173964785012
20
319.63449763617837
30
0
10
-85.905053055559932
20
324.06852640445999
30
0
10
-84.330117106581
20
328.15897509285855
30
0
0
SPLINE
5
213
100
AcDbEntity
8
0
100
AcDbSpline
70
0
71
2
72
6
73
3
74
0
42
0.000000001
43
0.0000000001
44
0.0000000001
40
0
40
0
40
0
40
1
40
1
40
1
10
-84.330117106581
20
328.15897509285855
30
0
10
-81.796274304560498
20
334.90831396928883
30
0
10
-76.227266714163676
20
341.44853176181073
30
0
0
SPLINE
5
214
100
AcDbEntity
8
0
100
AcDbSpline
70
0
71
2
72
6
73
3
74
0
42
0.000000001
43
0.0000000001
44
0.0000000001
40
0
40
0
40
0
40
1
40
1
40
1
10
-76.227266714163676
20
341.44853176181073
30
0
10
-70.658258541802056
20
347.98874001671976
30
0
10
-60.140805887179063
20
356.56803846361009
30
0
0
SPLINE
5
215
100
AcDbEntity
8
0
100
AcDbSpline
70
0
71
2
72
6
73
3
74
0
42
0.000000001
43
0.0000000001
44
0.0000000001
40
0
40
0
40
0
40
1
40
1
40
1
10
-60.140805887179063
20
356.56803846361009
30
0
10
-43.818216332497414
20
369.91367030338273
30
0
10
-38.07681500362893
20
377.7155701658678
30
0
0
SPLINE
5
216
100
AcDbEntity
8
0
100
AcDbSpline
70
0
71
2
72
6
73
3
74
0
42
0.000000001
43
0.0000000001
44
0.0000000001
40
0
40
0
40
0
40
1
40
1
40
1
10
-38.07681500362893
20
377.7155701658678
30
0
10
-32.335413674760446
20
385.51747002835299
30
0
10
-32.325140619005843
20
392.47516984935515
30
0
0
SPLINE
5
217
100
AcDbEntity
8
0
100
AcDbSpline
70
0
71
2
72
6
73
3
74
0
42
0.000000001
43
0.0000000001
44
0.0000000001
40
0
40
0
40
0
40
1
40
1
40
1
10
-32.325140619005843
20
392.47516984935515
30
0
10
-32.314363977324099
20
399.77393661273283
30
0
10
-37.525237398779964
20
404.79527348403383
30
0
0
SPLINE
5
218
100
AcDbEntity
8
0
100
AcDbSpline
70
0
71
2
72
6
73
3
74
0
42
0.000000001
43
0.0000000001
44
0.0000000001
40
0
40
0
40
0
40
1
40
1
40
1
10
-37.525237398779964
20
404.79527348403383
30
0
10
-42.736106037788446
20
409.81661988502708
30
0
10
-51.126275572688051
20
409.8290079847784
30
0
0
SPLINE
5
219
100
AcDbEntity
8
0
100
AcDbSpline
70
0
71
2
72
6
73
3
74
0
42
0.000000001
43
0.0000000001
44
0.0000000001
40
0
40
0
40
0
40
1
40
1
40
1
10
-51.126275572688051
20
409.8290079847784
30
0
10
-59.99393262803693
20
409.84210109567522
30
0
10
-65.322384167446842
20
404.52935653223972
30
0
0
SPLINE
5
220
100
AcDbEntity
8
0
100
AcDbSpline
70
0
71
2
72
6
73
3
74
0
42
0.000000001
43
0.0000000001
44
0.0000000001
40
0
40
0
40
0
40
1
40
1
40
1
10
-65.322384167446842
20
404.52935653223972
30
0
10
-70.650833308592553
20
399.21662150201684
30
0
10
-70.73294482526444
20
389.80336139285316
30
0
0
LINE
5
221
100
AcDbEntity
8
0
100
AcDbLine
10
-70.73294482526444
20
389.80336139285316
30
0
11
-83.350390067868716
21
391.11803588117868
31
0
0
SPLINE
5
222
100
AcDbEntity
8
0
100
AcDbSpline
70
0
71
2
72
6
73
3
74
0
42
0.000000001
43
0.0000000001
44
0.0000000001
40
0
40
0
40
0
40
1
40
1
40
1
10
-83.350390067868716
20
391.11803588117868
30
0
10
-82.033499815896889
20
405.23616589508356
30
0
10
-73.564191083112917
20
412.62476345021662
30
0
0
SPLINE
5
223
100
AcDbEntity
8
0
100
AcDbSpline
70
0
71
2
72
6
73
3
74
0
42
0.000000001
43
0.0000000001
44
0.0000000001
40
0
40
0
40
0
40
1
40
1
40
1
10
-73.564191083112917
20
412.62476345021662
30
0
10
-65.094882364409955
20
420.01335146861686
30
0
10
-50.838418164213302
20
419.99230177470065
30
0
0
SPLINE
5
224
100
AcDbEntity
8
0
100
AcDbSpline
70
0
71
2
72
6
73
3
74
0
42
0.000000001
43
0.0000000001
44
0.0000000001
40
0
40
0
40
0
40
1
40
1
40
1
10
-50.838418164213302
20
419.99230177470065
30
0
10
-36.445528617576414
20
419.97105064852582
30
0
10
-28.067142882131797
20
411.97777143737881
30
0
0
SPLINE
5
225
100
AcDbEntity
8
0
100
AcDbSpline
70
0
71
2
72
6
73
3
74
0
42
0.000000001
43
0.0000000001
44
0.0000000001
40
0
40
0
40
0
40
1
40
1
40
1
10
-28.067142882131797
20
411.97777143737881
30
0
10
-19.688761915053572
20
403.98449223327225
30
0
10
-19.706185824792762
20
392.18368665318326
30
0
0
SPLINE
5
226
100
AcDbEntity
8
0
100
AcDbSpline
70
0
71
2
72
6
73
3
74
0
42
0.000000001
43
0.0000000001
44
0.0000000001
40
0
40
0
40
0
40
1
40
1
40
1
10
-19.706185824792762
20
392.18368665318326
30
0
10
-19.715048858256694
20
386.18096187307958
30
0
10
-22.179265970456406
20
380.38650685375092
30
0
0
SPLINE
5
227
100
AcDbEntity
8
0
100
AcDbSpline
70
0
71
2
72
6
73
3
74
0
42
0.000000001
43
0.0000000001
44
0.0000000001
40
0
40
0
40
0
40
1
40
1
40
1
10
-22.179265970456406
20
380.38650685375092
30
0
10
-24.643487858063011
20
374.59204707309641
30
0
10
-30.348716378892142
20
368.18845843905626
30
0
0
SPLINE
5
228
100
AcDbEntity
8
0
100
AcDbSpline
70
0
71
2
72
6
73
3
74
0
42
0.000000001
43
0.0000000001
44
0.0000000001
40
0
40
0
40
0
40
1
40
1
40
1
10
-30.348716378892142
20
368.18845843905626
30
0
10
-36.053949668087654
20
361.7848698120568
30
0
10
-49.303742428409194
20
350.61751605259326
30
0
0
SPLINE
5
229
100
AcDbEntity
8
0
100
AcDbSpline
70
0
71
2
72
6
73
3
74
0
42
0.000000001
43
0.0000000001
44
0.0000000001
40
0
40
0
40
0
40
1
40
1
40
1
10
-49.303742428409194
20
350.61751605259326
30
0
10
-60.367902434474843
20
341.35689898495963
30
0
10
-63.510574912921172
20
338.05321072627055
30
0
0
SPLINE
5
230
100
AcDbEntity
8
0
100
AcDbSpline
70
0
71
2
72
6
73
3
74
0
42
0.000000001
43
0.0000000001
44
0.0000000001
40
0
40
0
40
0
40
1
40
1
40
1
10
-63.510574912921172
20
338.05321072627055
30
0
10
-66.6532449931033
20
334.74953200079392
30
0
10
-68.704562683589799
20
331.4101193874011
30
0
0
LINE
5
231
100
AcDbEntity
8
0
100
AcDbLine
10
-68.704562683589799
20
331.4101193874011
30
0
11
-19.659596994198871
21
331.33770441119157
31
0
0
LINE
5
232
100
AcDbEntity
8
0
100
AcDbLine
10
-42.528291310551147
20
619.57064353954433
30
0
11
-42.492939912186145
21
643.51331687373136
31
0
0
LINE
5
233
100
AcDbEntity
8
0
100
AcDbLine
10
-42.492939912186145
20
643.51331687373136
30
0
11
-85.876248210883148
21
643.57737240306403
31
0
0
LINE
5
234
100
AcDbEntity
8
0
100
AcDbLine
10
-85.876248210883148
20
643.57737240306415
30
0
11
-85.859630023138294
21
654.83248136575867
31
0
0
LINE
5
235
100
AcDbEntity
8
0
100
AcDbLine
10
-85.859630023138294
20
654.83248136575855
30
0
11
-40.129619506931206
21
719.56721089930716
31
0
0
LINE
5
236
100
AcDbEntity
8
0
100
AcDbLine
10
-40.129619506931206
20
719.56721089930716
30
0
11
-30.10234581474862
21
719.55240561245137
31
0
0
LINE
5
237
100
AcDbEntity
8
0
100
AcDbLine
10
-30.102345814748617
20
719.55240561245137
30
0
11
-30.198026239719798
21
654.75029691202099
31
0
0
LINE
5
238
100
AcDbEntity
8
0
100
AcDbLine
10
-30.198026239719802
20
654.75029691202099
30
0
11
-16.691905021219302
21
654.73035510080808
31
0
0
LINE
5
239
100
AcDbEntity
8
0
100
AcDbLine
10
-16.691905021219302
20
654.73035510080808
30
0
11
-16.708523208964177
21
643.47524613811379
31
0
0
LINE
5
240
100
AcDbEntity
8
0
100
AcDbLine
10
-16.708523208964181
20
643.47524613811379
30
0
11
-30.214644427464677
21
643.49518794932669
31
0
0
LINE
5
241
100
AcDbEntity
8
0
100
AcDbLine
10
-30.214644427464677
20
643.49518794932669
30
0
11
-30.249995825829682
21
619.55251461513956
31
0
0
LINE
5
242
100
AcDbEntity
8
0
100
AcDbLine
10
-30.249995825829679
20
619.55251461513956
30
0
11
-42.52829131055114
21
619.57064353954433
31
0
0
LINE
5
243
100
AcDbEntity
8
0
100
AcDbLine
10
-42.47632172444127
20
654.76842583642576
30
0
11
-42.409748294295049
21
699.85704932649992
31
0
0
LINE
5
244
100
AcDbEntity
8
0
100
AcDbLine
10
-42.409748294295042
20
699.85704932649992
30
0
11
-73.785973303134426
21
654.81465459084177
31
0
0
LINE
5
245
100
AcDbEntity
8
0
100
AcDbLine
10
-73.78597330313444
20
654.81465459084177
30
0
11
-42.47632172444127
21
654.76842583642565
31
0
0
ENDSEC
0
SECTION
2
OBJECTS
0
DICTIONARY
5
C
100
AcDbDictionary
3
ACAD_GROUP
350
D
3
ACAD_MLINESTYLE
350
17
0
DICTIONARY
5
D
100
AcDbDictionary
0
DICTIONARY
5
1A
330
C
100
AcDbDictionary
0
DICTIONARY
5
17
100
AcDbDictionary
0
ENDSEC
0
EOF
