0
SECTION
2
HEADER
9
$INSUNITS
70
4
9
$ACADVER
1
AC1014
9
$HANDSEED
5
FFFF
0
ENDSEC
0
SECTION
2
TABLES
0
TABLE
2
VPORT
5
8
100
AcDbSymbolTable
0
ENDTAB
0
TABLE
2
LTYPE
5
5
100
AcDbSymbolTable
0
LTYPE
5
14
100
AcDbSymbolTableRecord
100
AcDbLinetypeTableRecord
2
BYBLOCK
70
0
0
LTYPE
5
15
100
AcDbSymbolTableRecord
100
AcDbLinetypeTableRecord
2
BYLAYER
70
0
0
ENDTAB
0
TABLE
2
LAYER
5
2
100
AcDbSymbolTable
70
2
0
LAYER
5
50
100
AcDbSymbolTableRecord
100
AcDbLayerTableRecord
2
0
70
0
6
CONTINUOUS
0
ENDTAB
0
TABLE
2
STYLE
5
3
100
AcDbSymbolTable
70
1
0
STYLE
5
11
100
AcDbSymbolTableRecord
100
AcDbTextStyleTableRecord
2
STANDARD
70
0
0
ENDTAB
0
TABLE
2
VIEW
5
6
100
AcDbSymbolTable
70
0
0
ENDTAB
0
TABLE
2
UCS
5
7
100
AcDbSymbolTable
70
0
0
ENDTAB
0
TABLE
2
APPID
5
9
100
AcDbSymbolTable
70
2
0
APPID
5
12
100
AcDbSymbolTableRecord
100
AcDbRegAppTableRecord
2
ACAD
70
0
0
ENDTAB
0
TABLE
2
DIMSTYLE
5
A
100
AcDbSymbolTable
70
1
0
ENDTAB
0
TABLE
2
BLOCK_RECORD
5
1
100
AcDbSymbolTable
70
1
0
BLOCK_RECORD
5
1F
100
AcDbSymbolTableRecord
100
AcDbBlockTableRecord
2
*MODEL_SPACE
0
BLOCK_RECORD
5
1B
100
AcDbSymbolTableRecord
100
AcDbBlockTableRecord
2
*PAPER_SPACE
0
ENDTAB
0
ENDSEC
0
SECTION
2
BLOCKS
0
BLOCK
5
20
100
AcDbEntity
100
AcDbBlockBegin
2
*MODEL_SPACE
0
ENDBLK
5
21
100
AcDbEntity
100
AcDbBlockEnd
0
BLOCK
5
1C
100
AcDbEntity
100
AcDbBlockBegin
2
*PAPER_SPACE
0
ENDBLK
5
1D
100
AcDbEntity
100
AcDbBlockEnd
0
ENDSEC
0
SECTION
2
ENTITIES
0
LWPOLYLINE
5
100
100
AcDbEntity
8
0
100
AcDbPolyline
90
82
70
1
43
0.0
10
-955.95000000000005
20
464.80000000000388
10
-956.94999999999993
20
463.80000000000393
10
-956.94999999999993
20
339.80000000000388
10
-963.05000000000007
20
339.80000000000388
10
-963.05000000000007
20
463.80000000000388
10
-964.04999999999995
20
464.80000000000388
10
-1098.0499999999997
20
464.80000000000382
10
-1098.0499999999997
20
251.00000000000216
10
-1090
20
251.00000000000227
10
-1090
20
245.80000000000388
10
-1089
20
244.80000000000388
10
-1051
20
244.80000000000388
10
-1050
20
245.80000000000388
10
-1050
20
251.00000000000389
10
-965
20
251.00000000000702
10
-965.00000000000011
20
245.7999999999999
10
-964.00000000000023
20
244.80000000000388
10
-926.00000000000011
20
244.80000000000388
10
-925.00000000000011
20
245.80000000000388
10
-924.99999999999977
20
251.00000000000389
10
-865
20
251.00000000000773
10
-865
20
245.80000000000388
10
-864
20
244.80000000000388
10
-826.00000000000011
20
244.80000000000388
10
-825.00000000000011
20
245.80000000000388
10
-824.99999999999977
20
251.00000000000389
10
-765
20
251.00000000000773
10
-765
20
245.80000000000388
10
-764
20
244.80000000000388
10
-726.00000000000011
20
244.80000000000388
10
-725.00000000000011
20
245.80000000000388
10
-724.99999999999989
20
251.00000000000389
10
-665
20
251.00000000000773
10
-665
20
245.80000000000388
10
-664
20
244.80000000000388
10
-626.00000000000011
20
244.80000000000388
10
-625.00000000000011
20
245.80000000000388
10
-624.99999999999989
20
251.00000000000389
10
-565
20
251.00000000000773
10
-565
20
245.80000000000388
10
-564
20
244.80000000000388
10
-526.00000000000011
20
244.80000000000388
10
-525.00000000000011
20
245.80000000000388
10
-524.99999999999989
20
251.00000000000389
10
-465
20
251.00000000000773
10
-465
20
245.80000000000388
10
-464.00000000000006
20
244.80000000000388
10
-426.00000000000023
20
244.80000000000388
10
-425.00000000000011
20
245.80000000000388
10
-424.99999999999989
20
251.00000000000389
10
-365
20
251.00000000000773
10
-365
20
245.80000000000388
10
-364.00000000000006
20
244.80000000000388
10
-326.00000000000023
20
244.80000000000388
10
-325.00000000000011
20
245.80000000000388
10
-324.99999999999989
20
251.00000000000389
10
-265
20
251.00000000000773
10
-265
20
245.80000000000786
10
-264.00000000000006
20
244.80000000000388
10
-226.00000000000009
20
244.80000000000388
10
-225.00000000000006
20
245.80000000000388
10
-224.99999999999989
20
251.00000000000387
10
-140.00000000000011
20
251.00000000000699
10
-140.00000000000009
20
245.80000000000388
10
-139.00000000000006
20
244.80000000000388
10
-101.00000000000009
20
244.80000000000388
10
-100.00000000000007
20
245.80000000000388
10
-99.999999999999943
20
251.00000000000844
10
-91.950000000000045
20
251.00000000000844
10
-91.950000000000045
20
464.80000000000354
10
-225.94999999999999
20
464.80000000000939
10
-226.94999999999999
20
463.80000000000393
10
-226.94999999999999
20
339.80000000000388
10
-233.05000000000001
20
339.80000000000388
10
-233.05000000000001
20
463.80000000000388
10
-234.05000000000001
20
464.80000000000388
10
-590.95000000000005
20
464.80000000000388
10
-591.95000000000005
20
463.80000000000393
10
-591.95000000000005
20
339.80000000000388
10
-598.04999999999995
20
339.80000000000388
10
-598.04999999999995
20
463.80000000000388
10
-599.04999999999995
20
464.80000000000388
0
CIRCLE
5
101
100
AcDbEntity
8
0
100
AcDbCircle
10
-1075
20
349.80000000000388
30
0
40
3.0500000000000682
210
0
220
0
230
1
0
CIRCLE
5
102
100
AcDbEntity
8
0
100
AcDbCircle
10
-613.04999999999995
20
299.80000000000388
30
0
40
3.0499999999999972
210
0
220
0
230
1
0
CIRCLE
5
103
100
AcDbEntity
8
0
100
AcDbCircle
10
-115.00000000000014
20
299.80000000000388
30
0
40
3.0499999999999972
210
0
220
0
230
1
0
CIRCLE
5
104
100
AcDbEntity
8
0
100
AcDbCircle
10
-978.05000000000007
20
299.80000000000388
30
0
40
3.0500000000000682
210
0
220
0
230
1
0
CIRCLE
5
105
100
AcDbEntity
8
0
100
AcDbCircle
10
-1075
20
299.80000000000388
30
0
40
3.0500000000000682
210
0
220
0
230
1
0
CIRCLE
5
106
100
AcDbEntity
8
0
100
AcDbCircle
10
-211.94999999999999
20
299.80000000000388
30
0
40
3.0499999999999972
210
0
220
0
230
1
0
CIRCLE
5
107
100
AcDbEntity
8
0
100
AcDbCircle
10
-115.00000000000014
20
349.80000000000388
30
0
40
3.0499999999999972
210
0
220
0
230
1
0
CIRCLE
5
108
100
AcDbEntity
8
0
100
AcDbCircle
10
-1075
20
399.80000000000388
30
0
40
3.0500000000000682
210
0
220
0
230
1
0
CIRCLE
5
109
100
AcDbEntity
8
0
100
AcDbCircle
10
-1075
20
449.80000000000388
30
0
40
3.0500000000000682
210
0
220
0
230
1
0
CIRCLE
5
110
100
AcDbEntity
8
0
100
AcDbCircle
10
-115.00000000000014
20
399.80000000000388
30
0
40
3.0499999999999972
210
0
220
0
230
1
0
CIRCLE
5
111
100
AcDbEntity
8
0
100
AcDbCircle
10
-115.00000000000014
20
449.80000000000388
30
0
40
3.0499999999999972
210
0
220
0
230
1
0
CIRCLE
5
112
100
AcDbEntity
8
0
100
AcDbCircle
10
-248.05000000000001
20
299.80000000000388
30
0
40
3.0499999999999972
210
0
220
0
230
1
0
CIRCLE
5
113
100
AcDbEntity
8
0
100
AcDbCircle
10
-941.94999999999993
20
299.80000000000388
30
0
40
3.0500000000000682
210
0
220
0
230
1
0
CIRCLE
5
114
100
AcDbEntity
8
0
100
AcDbCircle
10
-576.95000000000005
20
299.80000000000388
30
0
40
3.0499999999999972
210
0
220
0
230
1
0
LWPOLYLINE
5
115
100
AcDbEntity
8
0
100
AcDbPolyline
90
58
70
1
43
0.0
10
-1050.9999999998818
20
599
10
-1049.9999999998813
20
600
10
-1049.9999999998784
20
605.10000000000002
10
-964.99999999989291
20
605.0999999999899
10
-964.99999999988358
20
599.99999999998693
10
-963.99999999988177
20
599
10
-925.99999999988404
20
599
10
-924.99999999988427
20
600
10
-925.00000000125374
20
605.10000000000002
10
-865.00000000129376
20
605.0999999999965
10
-864.99999999989211
20
599.99999999999818
10
-863.99999999988404
20
599
10
-825.99999999988404
20
599
10
-824.99999999988427
20
600
10
-825.00000000125374
20
605.10000000000002
10
-765.00000000129376
20
605.0999999999965
10
-764.99999999989211
20
599.99999999999818
10
-763.99999999988404
20
599
10
-725.99999999988404
20
599
10
-724.99999999988427
20
600
10
-725.00000000125374
20
605.10000000000002
10
-665.00000000129376
20
605.0999999999965
10
-664.99999999989211
20
599.99999999999818
10
-663.99999999988404
20
599
10
-625.99999999988404
20
599
10
-624.99999999988427
20
600
10
-625.00000000125374
20
605.10000000000002
10
-565.00000000129376
20
605.0999999999965
10
-564.99999999989211
20
599.99999999999818
10
-563.99999999988404
20
599
10
-525.99999999988404
20
599
10
-524.99999999988427
20
600
10
-525.00000000125374
20
605.10000000000002
10
-465.00000000129376
20
605.0999999999965
10
-464.99999999989211
20
599.99999999999818
10
-463.99999999988404
20
599
10
-425.99999999988415
20
599
10
-424.99999999988432
20
600
10
-425.00000000125368
20
605.10000000000002
10
-365.00000000129376
20
605.0999999999965
10
-364.99999999989211
20
600.00000000000011
10
-363.99999999988393
20
599
10
-325.99999999988415
20
599
10
-324.99999999988432
20
600
10
-325.00000000125368
20
605.10000000000002
10
-265.00000000129376
20
605.0999999999965
10
-264.99999999989211
20
599.99999999999818
10
-263.99999999988393
20
599
10
-225.99999999990274
20
599
10
-224.99999999990331
20
599.99999999999977
10
-225.00000000000313
20
605.09999999999968
10
-140.00000000001222
20
605.10000000000593
10
-139.9999999999051
20
600.00000000000011
10
-138.99999999990271
20
599
10
-99.999999999902656
20
599
10
-99.999999999902656
20
749
10
-1089.9999999998945
20
968.99999999998977
10
-1089.9999999999027
20
599
0
CIRCLE
5
116
100
AcDbEntity
8
0
100
AcDbCircle
10
-1074.9999999998784
20
804
30
0
40
3.0500000000000682
210
0
220
0
230
1
0
CIRCLE
5
117
100
AcDbEntity
8
0
100
AcDbCircle
10
-1074.9999999998784
20
704
30
0
40
3.0500000000000682
210
0
220
0
230
1
0
CIRCLE
5
118
100
AcDbEntity
8
0
100
AcDbCircle
10
-1074.9999999998795
20
854
30
0
40
3.0500000000000682
210
0
220
0
230
1
0
LWPOLYLINE
5
119
100
AcDbEntity
8
0
100
AcDbPolyline
90
4
70
1
43
0.0
10
-772.79976269683164
20
754.17014997019282
10
-724.00977600081762
20
743.23684314184572
10
-725.34363943387586
20
737.28446476493218
10
-774.13362612989033
20
748.21777159327917
0
LWPOLYLINE
5
120
100
AcDbEntity
8
0
100
AcDbPolyline
90
4
70
1
43
0.0
10
-471.57038483564111
20
686.66791361197875
10
-422.78039813962721
20
675.73460678363188
10
-424.11426157268522
20
669.7822284067181
10
-472.90424826869975
20
680.71553523506509
0
LWPOLYLINE
5
121
100
AcDbEntity
8
0
100
AcDbPolyline
90
4
70
1
43
0.0
10
-170.34100697445055
20
619.16567725376478
10
-121.55102027843654
20
608.2323704254178
10
-122.88488371149484
20
602.27999204850414
10
-171.67487040750927
20
613.21329887685135
0
CIRCLE
5
122
100
AcDbEntity
8
0
100
AcDbCircle
10
-114.99999999987836
20
704
30
0
40
3.0499999999999972
210
0
220
0
230
1
0
CIRCLE
5
123
100
AcDbEntity
8
0
100
AcDbCircle
10
-978.04999999987672
20
654
30
0
40
3.0500000000000682
210
0
220
0
230
1
0
CIRCLE
5
124
100
AcDbEntity
8
0
100
AcDbCircle
10
-114.99999999987836
20
654
30
0
40
3.0499999999999972
210
0
220
0
230
1
0
CIRCLE
5
125
100
AcDbEntity
8
0
100
AcDbCircle
10
-941.94999999987976
20
654
30
0
40
3.0500000000000682
210
0
220
0
230
1
0
CIRCLE
5
126
100
AcDbEntity
8
0
100
AcDbCircle
10
-1074.9999999998784
20
654
30
0
40
3.0500000000000682
210
0
220
0
230
1
0
CIRCLE
5
127
100
AcDbEntity
8
0
100
AcDbCircle
10
-1074.9999999998784
20
754
30
0
40
3.0500000000000682
210
0
220
0
230
1
0
CIRCLE
5
128
100
AcDbEntity
8
0
100
AcDbCircle
10
-1074.9999999998799
20
904
30
0
40
3.0500000000000682
210
0
220
0
230
1
0
LWPOLYLINE
5
129
100
AcDbEntity
8
0
100
AcDbPolyline
90
4
70
1
43
0.0
10
-873.20955531722848
20
776.6708954229307
10
-824.41956862121424
20
765.73758859458394
10
-825.75343205427259
20
759.78521021766994
10
-874.54341875028706
20
770.71851704601715
0
LWPOLYLINE
5
130
100
AcDbEntity
8
0
100
AcDbPolyline
90
4
70
1
43
0.0
10
-672.38997007643479
20
731.66940451745472
10
-623.59998338042078
20
720.73609768910796
10
-624.93384681347891
20
714.78371931219397
10
-673.72383350949337
20
725.71702614054107
0
LWPOLYLINE
5
131
100
AcDbEntity
8
0
100
AcDbPolyline
90
4
70
1
43
0.0
10
-371.16059221524426
20
664.16716815924076
10
-322.37060551923008
20
653.23386133089366
10
-323.70446895228838
20
647.28148295398012
10
-372.49445564830285
20
658.21478978232733
0
LWPOLYLINE
5
132
100
AcDbEntity
8
0
100
AcDbPolyline
90
4
70
1
43
0.0
10
-270.75079959484742
20
641.66642270650277
10
-221.96081289883338
20
630.73311587815579
10
-223.29467633189168
20
624.78073750124213
10
-272.08466302790612
20
635.71404432958934
0
LWPOLYLINE
5
133
100
AcDbEntity
8
0
100
AcDbPolyline
90
4
70
1
43
0.0
10
-571.98017745603795
20
709.16865906471673
10
-523.19019076002394
20
698.23535223636986
10
-524.52405419308218
20
692.28297385945609
10
-573.31404088909653
20
703.21628068780342
0
LWPOLYLINE
5
134
100
AcDbEntity
8
0
100
AcDbPolyline
90
12
70
1
43
0.0
10
-973.61934793762532
20
799.1716408756688
10
-963.04999999988115
20
796.80316464100929
10
-963.04999999988115
20
848.99999999996567
10
-956.94999999987976
20
848.99999999996294
10
-956.94999999988045
20
795.43622080336377
10
-924.82936124161131
20
788.23833404732181
10
-926.16322467466944
20
782.28595567040816
10
-956.94999999988056
20
789.18493809856977
10
-956.94999999987976
20
693.99999999996055
10
-963.04999999987604
20
693.99999999998943
10
-963.04999999988115
20
790.5518819362153
10
-974.9532113706839
20
793.21926249875514
0
LWPOLYLINE
5
135
100
AcDbEntity
8
0
100
AcDbPolyline
90
4
70
1
43
0.0
10
-1074.0291405580219
20
821.67238632840667
10
-1025.2391538620079
20
810.73907950005992
10
-1026.5730172950662
20
804.78670112314603
10
-1075.3630039910806
20
815.72000795149302
0
LWPOLYLINE
5
136
100
AcDbEntity
8
0
100
AcDbPolyline
90
4
70
1
43
0.0
10
-1042.0782003145293
20
143.89999999999944
10
-1092.0782003145293
20
143.89999999999941
10
-1092.0782003145293
20
150.00000000000014
10
-1042.0782003145293
20
150.00000000000011
0
LWPOLYLINE
5
137
100
AcDbEntity
8
0
100
AcDbPolyline
90
4
70
1
43
0.0
10
-836.27820031452927
20
149.99999999999969
10
-836.27820031452927
20
143.89999999999941
10
-886.27820031452927
20
143.89999999999941
10
-886.27820031452927
20
149.99999999999969
0
CIRCLE
5
138
100
AcDbEntity
8
0
100
AcDbCircle
10
-1092.0782003145293
20
59.999999999999645
30
0
40
3.0500000000000682
210
0
220
0
230
1
0
CIRCLE
5
139
100
AcDbEntity
8
0
100
AcDbCircle
10
-1092.0782003145293
20
109.99999999999964
30
0
40
3.0500000000000682
210
0
220
0
230
1
0
CIRCLE
5
140
100
AcDbEntity
8
0
100
AcDbCircle
10
-115.97820031452926
20
59.999999999999645
30
0
40
3.0499999999999972
210
0
220
0
230
1
0
CIRCLE
5
141
100
AcDbEntity
8
0
100
AcDbCircle
10
-122.07820031452925
20
154.99999999999966
30
0
40
3.0499999999999972
210
0
220
0
230
1
0
CIRCLE
5
142
100
AcDbEntity
8
0
100
AcDbCircle
10
-1085.978200314531
20
154.99999999999966
30
0
40
3.0500000000000682
210
0
220
0
230
1
0
LWPOLYLINE
5
143
100
AcDbEntity
8
0
100
AcDbPolyline
90
4
70
1
43
0.0
10
-115.97820031452926
20
150.00000000000014
10
-115.9782003145294
20
143.89999999999941
10
-165.9782003145294
20
143.89999999999941
10
-165.97820031452926
20
150.00000000000014
0
CIRCLE
5
144
100
AcDbEntity
8
0
100
AcDbCircle
10
-115.97820031452926
20
109.99999999999964
30
0
40
3.0499999999999972
210
0
220
0
230
1
0
LWPOLYLINE
5
145
100
AcDbEntity
8
0
100
AcDbPolyline
90
4
70
1
43
0.0
10
-218.87820031452932
20
149.99999999999969
10
-218.87820031452932
20
143.89999999999941
10
-268.87820031452929
20
143.89999999999941
10
-268.87820031452929
20
149.99999999999969
0
LWPOLYLINE
5
146
100
AcDbEntity
8
0
100
AcDbPolyline
90
4
70
1
43
0.0
10
-321.77820031452927
20
149.99999999999969
10
-321.77820031452927
20
143.89999999999941
10
-371.77820031452927
20
143.89999999999941
10
-371.77820031452927
20
149.99999999999969
0
LWPOLYLINE
5
147
100
AcDbEntity
8
0
100
AcDbPolyline
90
4
70
1
43
0.0
10
-424.67820031452931
20
149.99999999999969
10
-424.67820031452931
20
143.89999999999941
10
-474.67820031452931
20
143.89999999999941
10
-474.67820031452931
20
149.99999999999969
0
LWPOLYLINE
5
148
100
AcDbEntity
8
0
100
AcDbPolyline
90
4
70
1
43
0.0
10
-527.57820031452934
20
149.99999999999969
10
-527.57820031452934
20
143.89999999999941
10
-577.57820031452934
20
143.89999999999941
10
-577.57820031452934
20
149.99999999999969
0
LWPOLYLINE
5
149
100
AcDbEntity
8
0
100
AcDbPolyline
90
4
70
1
43
0.0
10
-630.47820031452932
20
149.99999999999969
10
-630.47820031452932
20
143.89999999999941
10
-680.47820031452932
20
143.89999999999941
10
-680.47820031452932
20
149.99999999999969
0
LWPOLYLINE
5
150
100
AcDbEntity
8
0
100
AcDbPolyline
90
4
70
1
43
0.0
10
-733.37820031452929
20
149.99999999999969
10
-733.37820031452929
20
143.89999999999941
10
-783.37820031452929
20
143.89999999999941
10
-783.37820031452929
20
149.99999999999969
0
LWPOLYLINE
5
151
100
AcDbEntity
8
0
100
AcDbPolyline
90
4
70
1
43
0.0
10
-939.17820031452925
20
149.99999999999969
10
-939.17820031452925
20
143.89999999999941
10
-989.17820031452925
20
143.89999999999941
10
-989.17820031452925
20
149.99999999999969
0
LWPOLYLINE
5
152
100
AcDbEntity
8
0
100
AcDbPolyline
90
8
70
1
43
0.0
10
-1100.978200314531
20
164.99999999999966
10
-1100.978200314531
20
150.00000000000014
10
-1107.0782003145293
20
150.00000000000006
10
-1107.0782003145293
20
-3.5527136788005009e-13
10
-100.97820031452926
20
-3.5527136788005009e-13
10
-100.97820031452926
20
150.00000000000006
10
-107.07820031452925
20
149.9999999999996
10
-107.07820031452925
20
164.99999999999966
0
LWPOLYLINE
5
153
100
AcDbEntity
8
0
100
AcDbPolyline
90
124
70
1
43
0.0
10
-2230.0999999999999
20
991.09999999999991
10
-2231.0999999999999
20
990.09999999999991
10
-2231.0999999999999
20
942.09999999999968
10
-2230.0999999999999
20
941.09999999999968
10
-2218.8999999999996
20
941.09999999999991
10
-2218.8999999999996
20
888.19999999999982
10
-2230.0999999999999
20
888.19999999999982
10
-2231.0999999999999
20
887.19999999999982
10
-2231.0999999999999
20
839.1999999999997
10
-2230.0999999999999
20
838.19999999999982
10
-2218.8999999999996
20
838.19999999999982
10
-2218.8999999999996
20
785.29999999999984
10
-2230.0999999999999
20
785.29999999999984
10
-2231.0999999999999
20
784.29999999999995
10
-2231.0999999999999
20
736.29999999999973
10
-2230.0999999999999
20
735.29999999999973
10
-2218.8999999999996
20
735.29999999999984
10
-2218.8999999999996
20
682.39999999999998
10
-2230.0999999999999
20
682.39999999999998
10
-2231.0999999999999
20
681.39999999999998
10
-2231.0999999999999
20
633.39999999999975
10
-2230.0999999999999
20
632.39999999999975
10
-2218.8999999999996
20
632.39999999999986
10
-2218.8999999999996
20
579.49999999999989
10
-2230.0999999999999
20
579.49999999999989
10
-2231.0999999999999
20
578.5
10
-2231.0999999999999
20
530.49999999999977
10
-2230.0999999999999
20
529.49999999999977
10
-2218.8999999999996
20
529.49999999999989
10
-2218.8999999999996
20
476.59999999999991
10
-2230.0999999999999
20
476.59999999999991
10
-2231.0999999999999
20
475.59999999999991
10
-2231.0999999999999
20
427.5999999999998
10
-2230.0999999999999
20
426.59999999999974
10
-2218.8999999999996
20
426.59999999999991
10
-2218.8999999999996
20
373.69999999999993
10
-2230.0999999999999
20
373.69999999999993
10
-2231.0999999999999
20
372.69999999999993
10
-2231.0999999999999
20
324.69999999999976
10
-2230.0999999999999
20
323.69999999999976
10
-2218.8999999999996
20
323.69999999999993
10
-2218.8999999999996
20
270.79999999999984
10
-2230.0999999999999
20
270.79999999999984
10
-2231.0999999999999
20
269.79999999999984
10
-2231.0999999999999
20
221.79999999999973
10
-2230.0999999999999
20
220.7999999999997
10
-2218.8999999999996
20
220.79999999999984
10
-2218.8999999999996
20
167.89999999999992
10
-2230.0999999999999
20
167.89999999999992
10
-2231.0999999999999
20
166.89999999999992
10
-2231.0999999999999
20
118.89999999999978
10
-2230.0999999999999
20
117.89999999999979
10
-2218.8999999999996
20
117.89999999999992
10
-2218.8999999999996
20
65
10
-2230.0999999999999
20
65
10
-2231.0999999999999
20
64
10
-2231.0999999999999
20
15.999999999999854
10
-2230.0999999999999
20
14.999999999999869
10
-2218.8999999999996
20
15
10
-2218.8999999999996
20
-1.4210854715202004e-13
10
-1224.9999999999998
20
-1.4210854715202004e-13
10
-1225
20
15
10
-1213.7999999999997
20
14.999999999999989
10
-1212.8
20
16
10
-1212.8
20
64
10
-1213.7999999999997
20
65
10
-1224.9999999999998
20
65
10
-1224.9999999999998
20
117.89999999999978
10
-1213.7999999999997
20
117.89999999999991
10
-1212.8
20
118.89999999999993
10
-1212.8
20
166.89999999999992
10
-1213.7999999999997
20
167.89999999999992
10
-1224.9999999999998
20
167.89999999999992
10
-1224.9999999999998
20
220.7999999999997
10
-1213.7999999999997
20
220.79999999999984
10
-1212.8
20
221.79999999999984
10
-1212.8
20
269.79999999999984
10
-1213.7999999999997
20
270.79999999999984
10
-1224.9999999999998
20
270.79999999999984
10
-1224.9999999999998
20
323.69999999999976
10
-1213.7999999999997
20
323.69999999999993
10
-1212.8
20
324.69999999999993
10
-1212.8
20
372.69999999999987
10
-1213.7999999999997
20
373.69999999999993
10
-1224.9999999999998
20
373.69999999999993
10
-1224.9999999999998
20
426.59999999999974
10
-1213.7999999999997
20
426.59999999999991
10
-1212.8
20
427.59999999999985
10
-1212.8
20
475.59999999999991
10
-1213.7999999999997
20
476.59999999999991
10
-1224.9999999999998
20
476.59999999999991
10
-1224.9999999999998
20
529.49999999999977
10
-1213.7999999999997
20
529.49999999999989
10
-1212.8
20
530.49999999999989
10
-1212.8
20
578.49999999999989
10
-1213.7999999999997
20
579.49999999999989
10
-1224.9999999999998
20
579.49999999999989
10
-1224.9999999999998
20
632.39999999999975
10
-1213.7999999999997
20
632.39999999999986
10
-1212.8
20
633.39999999999986
10
-1212.8
20
681.39999999999998
10
-1213.7999999999997
20
682.39999999999998
10
-1224.9999999999998
20
682.39999999999998
10
-1224.9999999999998
20
735.29999999999973
10
-1213.7999999999997
20
735.29999999999984
10
-1212.8
20
736.29999999999984
10
-1212.8
20
784.29999999999995
10
-1213.7999999999997
20
785.29999999999984
10
-1224.9999999999998
20
785.29999999999984
10
-1224.9999999999998
20
838.19999999999982
10
-1213.7999999999997
20
838.19999999999982
10
-1212.8
20
839.1999999999997
10
-1212.8
20
887.19999999999982
10
-1213.7999999999997
20
888.19999999999982
10
-1224.9999999999998
20
888.19999999999982
10
-1224.9999999999998
20
941.09999999999968
10
-1213.7999999999997
20
941.09999999999991
10
-1212.8
20
942.09999999999968
10
-1212.8
20
990.09999999999991
10
-1213.7999999999997
20
991.09999999999991
10
-1224.9999999999998
20
991.09999999999991
10
-1224.9999999999998
20
1006.0999999999999
10
-2218.8999999999996
20
1006.0999999999999
10
-2218.8999999999996
20
991.09999999999991
0
LWPOLYLINE
5
154
100
AcDbEntity
8
0
100
AcDbPolyline
90
4
70
1
43
0.0
10
-1803.052284143547
20
-249.84784312518738
10
-1700
20
-250
10
-1699.8385368904878
20
-140.644821269598
10
-1802.8908210340344
20
-140.49266439478592
0
LWPOLYLINE
5
155
100
AcDbEntity
8
0
100
AcDbPolyline
90
4
70
1
43
0.0
10
-85.925412707679385
20
10.279411335786968
10
17.126871435867486
20
10.127254460974342
10
17.288334545379769
20
119.48243319137623
10
-85.763949598166818
20
119.63459006618832
0
LWPOLYLINE
5
156
100
AcDbEntity
8
0
100
AcDbPolyline
90
4
70
1
43
0.0
10
-85.925412707679385
20
310.27941133578702
10
17.126871435867486
20
310.12725446097437
10
17.288334545379769
20
419.48243319137623
10
-85.763949598166818
20
419.63459006618837
0
LWPOLYLINE
5
157
100
AcDbEntity
8
0
100
AcDbPolyline
90
4
70
1
43
0.0
10
-85.925412707679385
20
610.2794113357869
10
17.126871435867486
20
610.12725446097431
10
17.288334545379769
20
719.48243319137623
10
-85.763949598166818
20
719.63459006618814
0
LINE
5
158
100
AcDbEntity
8
0
100
AcDbLine
10
-1802.9994938590537
20
-214.09422105361926
30
0
11
-1790.718782975365
21
-212.47524581810092
31
0
0
SPLINE
5
159
100
AcDbEntity
8
0
100
AcDbSpline
70
0
71
2
72
6
73
3
74
0
42
0.000000001
43
0.0000000001
44
0.0000000001
40
0
40
0
40
0
40
1
40
1
40
1
10
-1790.718782975365
20
-212.47524581810092
30
0
10
-1788.6195961164185
20
-222.91492013907771
30
0
10
-1783.54454612529
20
-227.52677715109581
30
0
0
SPLINE
5
160
100
AcDbEntity
8
0
100
AcDbSpline
70
0
71
2
72
6
73
3
74
0
42
0.000000001
43
0.0000000001
44
0.0000000001
40
0
40
0
40
0
40
1
40
1
40
1
10
-1783.54454612529
20
-227.52677715109581
30
0
10
-1778.4694937640588
20
-232.13864370336694
30
0
10
-1771.1707293848644
20
-232.14942034152844
30
0
0
SPLINE
5
161
100
AcDbEntity
8
0
100
AcDbSpline
70
0
71
2
72
6
73
3
74
0
42
0.000000001
43
0.0000000001
44
0.0000000001
40
0
40
0
40
0
40
1
40
1
40
1
10
-1771.1707293848644
20
-232.14942034152844
30
0
10
-1762.5077091570845
20
-232.16221130579726
30
0
10
-1756.530229482345
20
-226.16830873518541
30
0
0
SPLINE
5
162
100
AcDbEntity
8
0
100
AcDbSpline
70
0
71
2
72
6
73
3
74
0
42
0.000000001
43
0.0000000001
44
0.0000000001
40
0
40
0
40
0
40
1
40
1
40
1
10
-1756.530229482345
20
-226.16830873518541
30
0
10
-1750.5527545618916
20
-220.17439662080034
30
0
10
-1750.5396614545152
20
-211.30674194963461
30
0
0
SPLINE
5
163
100
AcDbEntity
8
0
100
AcDbSpline
70
0
71
2
72
6
73
3
74
0
42
0.000000001
43
0.0000000001
44
0.0000000001
40
0
40
0
40
0
40
1
40
1
40
1
10
-1750.5396614545152
20
-211.30674194963461
30
0
10
-1750.5271726333538
20
-202.84835616524015
30
0
10
-1756.0442950823654
20
-197.34907140275851
30
0
0
SPLINE
5
164
100
AcDbEntity
8
0
100
AcDbSpline
70
0
71
2
72
6
73
3
74
0
42
0.000000001
43
0.0000000001
44
0.0000000001
40
0
40
0
40
0
40
1
40
1
40
1
10
-1756.0442950823654
20
-197.34907140275851
30
0
10
-1761.5614222997431
20
-191.84978663323636
30
0
10
-1770.0880147968996
20
-191.83719710474656
30
0
0
SPLINE
5
165
100
AcDbEntity
8
0
100
AcDbSpline
70
0
71
2
72
6
73
3
74
0
42
0.000000001
43
0.0000000001
44
0.0000000001
40
0
40
0
40
0
40
1
40
1
40
1
10
-1770.0880147968996
20
-191.83719710474656
30
0
10
-1773.5668647074008
20
-191.83206057686925
30
0
10
-1778.7530469701242
20
-193.18866437676687
30
0
0
LINE
5
166
100
AcDbEntity
8
0
100
AcDbLine
10
-1778.7530469701242
20
-193.18866437676687
30
0
11
-1777.3728803396828
21
-182.41306440965838
31
0
0
SPLINE
5
167
100
AcDbEntity
8
0
100
AcDbSpline
70
0
71
2
72
6
73
3
74
0
42
0.000000001
43
0.0000000001
44
0.0000000001
40
0
40
0
40
0
40
1
40
1
40
1
10
-1777.3728803396828
20
-182.41306440965838
30
0
10
-1776.1452512662759
20
-182.55130026576398
30
0
10
-1775.3949106687628
20
-182.55240814494698
30
0
0
SPLINE
5
168
100
AcDbEntity
8
0
100
AcDbSpline
70
0
71
2
72
6
73
3
74
0
42
0.000000001
43
0.0000000001
44
0.0000000001
40
0
40
0
40
0
40
1
40
1
40
1
10
-1775.3949106687628
20
-182.55240814494698
30
0
10
-1767.5504449038076
20
-182.56399051214331
30
0
10
-1761.2688312243881
20
-178.48049124151032
30
0
0
SPLINE
5
169
100
AcDbEntity
8
0
100
AcDbSpline
70
0
71
2
72
6
73
3
74
0
42
0.000000001
43
0.0000000001
44
0.0000000001
40
0
40
0
40
0
40
1
40
1
40
1
10
-1761.2688312243881
20
-178.48049124151032
30
0
10
-1754.9872127766023
20
-174.39699197791788
30
0
10
-1754.9746232481125
20
-165.87039948076122
30
0
0
SPLINE
5
170
100
AcDbEntity
8
0
100
AcDbSpline
70
0
71
2
72
6
73
3
74
0
42
0.000000001
43
0.0000000001
44
0.0000000001
40
0
40
0
40
0
40
1
40
1
40
1
10
-1754.9746232481125
20
-165.87039948076122
30
0
10
-1754.9646523354656
20
-159.11733410314457
30
0
10
-1759.5283608479838
20
-154.67675877809452
30
0
0
SPLINE
5
171
100
AcDbEntity
8
0
100
AcDbSpline
70
0
71
2
72
6
73
3
74
0
42
0.000000001
43
0.0000000001
44
0.0000000001
40
0
40
0
40
0
40
1
40
1
40
1
10
-1759.5283608479838
20
-154.67675877809452
30
0
10
-1764.0920693605017
20
-150.2361834530445
30
0
10
-1771.3226198743846
20
-150.22550753277247
30
0
0
SPLINE
5
172
100
AcDbEntity
8
0
100
AcDbSpline
70
0
71
2
72
6
73
3
74
0
42
0.000000001
43
0.0000000001
44
0.0000000001
40
0
40
0
40
0
40
1
40
1
40
1
10
-1771.3226198743846
20
-150.22550753277247
30
0
10
-1778.4849589071384
20
-150.21493232686967
30
0
10
-1783.2664980619306
20
-154.70991623911954
30
0
0
SPLINE
5
173
100
AcDbEntity
8
0
100
AcDbSpline
70
0
71
2
72
6
73
3
74
0
42
0.000000001
43
0.0000000001
44
0.0000000001
40
0
40
0
40
0
40
1
40
1
40
1
10
-1783.2664980619306
20
-154.70991623911954
30
0
10
-1788.0480372308036
20
-159.20490968810216
30
0
10
-1789.4255876366256
20
-168.20698730051677
30
0
0
LINE
5
174
100
AcDbEntity
8
0
100
AcDbLine
10
-1789.4255876366256
20
-168.20698730051677
30
0
11
-1801.7006596021215
21
-166.00604806558167
31
0
0
SPLINE
5
175
100
AcDbEntity
8
0
100
AcDbSpline
70
0
71
2
72
6
73
3
74
0
42
0.000000001
43
0.0000000001
44
0.0000000001
40
0
40
0
40
0
40
1
40
1
40
1
10
-1801.7006596021215
20
-166.00604806558167
30
0
10
-1799.4314087598141
20
-153.66285996803424
30
0
10
-1791.4404963821071
20
-146.88747503349157
30
0
0
SPLINE
5
176
100
AcDbEntity
8
0
100
AcDbSpline
70
0
71
2
72
6
73
3
74
0
42
0.000000001
43
0.0000000001
44
0.0000000001
40
0
40
0
40
0
40
1
40
1
40
1
10
-1791.4404963821071
20
-146.88747503349157
30
0
10
-1783.4495840044001
20
-140.11209009894887
30
0
10
-1771.5805645589994
20
-140.12961472657759
30
0
0
SPLINE
5
177
100
AcDbEntity
8
0
100
AcDbSpline
70
0
71
2
72
6
73
3
74
0
42
0.000000001
43
0.0000000001
44
0.0000000001
40
0
40
0
40
0
40
1
40
1
40
1
10
-1771.5805645589994
20
-140.12961472657759
30
0
10
-1763.3950342358517
20
-140.14170067618079
30
0
10
-1756.5107327880805
20
-143.66483343699792
30
0
0
SPLINE
5
178
100
AcDbEntity
8
0
100
AcDbSpline
70
0
71
2
72
6
73
3
74
0
42
0.000000001
43
0.0000000001
44
0.0000000001
40
0
40
0
40
0
40
1
40
1
40
1
10
-1756.5107327880805
20
-143.66483343699792
30
0
10
-1749.6264360945947
20
-147.18795665404181
30
0
10
-1745.9860164677796
20
-153.26428600448128
30
0
0
SPLINE
5
179
100
AcDbEntity
8
0
100
AcDbSpline
70
0
71
2
72
6
73
3
74
0
42
0.000000001
43
0.0000000001
44
0.0000000001
40
0
40
0
40
0
40
1
40
1
40
1
10
-1745.9860164677796
20
-153.26428600448128
30
0
10
-1742.3455968268831
20
-159.34060581818798
30
0
10
-1742.3556684538994
20
-166.16188267693315
30
0
0
SPLINE
5
180
100
AcDbEntity
8
0
100
AcDbSpline
70
0
71
2
72
6
73
3
74
0
42
0.000000001
43
0.0000000001
44
0.0000000001
40
0
40
0
40
0
40
1
40
1
40
1
10
-1742.3556684538994
20
-166.16188267693315
30
0
10
-1742.3652365020289
20
-172.6420973616693
30
0
10
-1745.851944658323
20
-177.95755172562457
30
0
0
SPLINE
5
181
100
AcDbEntity
8
0
100
AcDbSpline
70
0
71
2
72
6
73
3
74
0
42
0.000000001
43
0.0000000001
44
0.0000000001
40
0
40
0
40
0
40
1
40
1
40
1
10
-1745.851944658323
20
-177.95755172562457
30
0
10
-1749.3386480532911
20
-183.27301086498676
30
0
10
-1756.1645578575065
20
-186.40072459027948
30
0
0
SPLINE
5
182
100
AcDbEntity
8
0
100
AcDbSpline
70
0
71
2
72
6
73
3
74
0
42
0.000000001
43
0.0000000001
44
0.0000000001
40
0
40
0
40
0
40
1
40
1
40
1
10
-1756.1645578575065
20
-186.40072459027948
30
0
10
-1747.2999199053754
20
-188.46020028548338
30
0
10
-1742.3981203596254
20
-194.91356318219226
30
0
0
SPLINE
5
183
100
AcDbEntity
8
0
100
AcDbSpline
70
0
71
2
72
6
73
3
74
0
42
0.000000001
43
0.0000000001
44
0.0000000001
40
0
40
0
40
0
40
1
40
1
40
1
10
-1742.3981203596254
20
-194.91356318219226
30
0
10
-1737.4963207927535
20
-201.366911773802
30
0
10
-1737.5106225007225
20
-211.05312329197557
30
0
0
SPLINE
5
184
100
AcDbEntity
8
0
100
AcDbSpline
70
0
71
2
72
6
73
3
74
0
42
0.000000001
43
0.0000000001
44
0.0000000001
40
0
40
0
40
0
40
1
40
1
40
1
10
-1737.5106225007225
20
-211.05312329197557
30
0
10
-1737.5299600116391
20
-224.14996608697211
30
0
10
-1747.0931894244591
20
-233.2422725908134
30
0
0
SPLINE
5
185
100
AcDbEntity
8
0
100
AcDbSpline
70
0
71
2
72
6
73
3
74
0
42
0.000000001
43
0.0000000001
44
0.0000000001
40
0
40
0
40
0
40
1
40
1
40
1
10
-1747.0931894244591
20
-233.2422725908134
30
0
10
-1756.6564188231985
20
-242.33456955792184
30
0
10
-1771.2539475815875
20
-242.31301628159883
30
0
0
SPLINE
5
186
100
AcDbEntity
8
0
100
AcDbSpline
70
0
71
2
72
6
73
3
74
0
42
0.000000001
43
0.0000000001
44
0.0000000001
40
0
40
0
40
0
40
1
40
1
40
1
10
-1771.2539475815875
20
-242.31301628159883
30
0
10
-1784.419009010262
20
-242.29357804575238
30
0
10
-1793.1045526219709
20
-234.4362781118931
30
0
0
SPLINE
5
187
100
AcDbEntity
8
0
100
AcDbSpline
70
0
71
2
72
6
73
3
74
0
42
0.000000001
43
0.0000000001
44
0.0000000001
40
0
40
0
40
0
40
1
40
1
40
1
10
-1793.1045526219709
20
-234.4362781118931
30
0
10
-1801.7900956235528
20
-226.57896864218117
30
0
10
-1802.9994938590537
20
-214.09422105361926
30
0
0
LINE
5
188
100
AcDbEntity
8
0
100
AcDbLine
10
-19.659596994198871
20
31.337704411191556
30
0
11
-19.677020896897556
21
19.536903599468939
31
0
0
LINE
5
189
100
AcDbEntity
8
0
100
AcDbLine
10
-19.677020896897552
20
19.536903599468936
30
0
11
-85.775173964785012
21
19.63449763617837
31
0
0
SPLINE
5
190
100
AcDbEntity
8
0
100
AcDbSpline
70
0
71
2
72
6
73
3
74
0
42
0.000000001
43
0.0000000001
44
0.0000000001
40
0
40
0
40
0
40
1
40
1
40
1
10
-85.775173964785012
20
19.634497636178381
30
0
10
-85.905053055559932
20
24.068526404459973
30
0
10
-84.330117106581
20
28.15897509285854
30
0
0
SPLINE
5
191
100
AcDbEntity
8
0
100
AcDbSpline
70
0
71
2
72
6
73
3
74
0
42
0.000000001
43
0.0000000001
44
0.0000000001
40
0
40
0
40
0
40
1
40
1
40
1
10
-84.330117106581
20
28.15897509285854
30
0
10
-81.796274304560498
20
34.908313969288841
30
0
10
-76.227266714163676
20
41.448531761810727
30
0
0
SPLINE
5
192
100
AcDbEntity
8
0
100
AcDbSpline
70
0
71
2
72
6
73
3
74
0
42
0.000000001
43
0.0000000001
44
0.0000000001
40
0
40
0
40
0
40
1
40
1
40
1
10
-76.227266714163676
20
41.448531761810727
30
0
10
-70.658258541802056
20
47.988740016719774
30
0
10
-60.140805887179063
20
56.568038463610065
30
0
0
SPLINE
5
193
100
AcDbEntity
8
0
100
AcDbSpline
70
0
71
2
72
6
73
3
74
0
42
0.000000001
43
0.0000000001
44
0.0000000001
40
0
40
0
40
0
40
1
40
1
40
1
10
-60.140805887179063
20
56.568038463610065
30
0
10
-43.818216332497414
20
69.913670303382702
30
0
10
-38.07681500362893
20
77.715570165867817
30
0
0
SPLINE
5
194
100
AcDbEntity
8
0
100
AcDbSpline
70
0
71
2
72
6
73
3
74
0
42
0.000000001
43
0.0000000001
44
0.0000000001
40
0
40
0
40
0
40
1
40
1
40
1
10
-38.07681500362893
20
77.715570165867817
30
0
10
-32.335413674760446
20
85.51747002835296
30
0
10
-32.325140619005843
20
92.475169849355154
30
0
0
SPLINE
5
195
100
AcDbEntity
8
0
100
AcDbSpline
70
0
71
2
72
6
73
3
74
0
42
0.000000001
43
0.0000000001
44
0.0000000001
40
0
40
0
40
0
40
1
40
1
40
1
10
-32.325140619005843
20
92.475169849355154
30
0
10
-32.314363977324099
20
99.773936612732797
30
0
10
-37.525237398779964
20
104.7952734840338
30
0
0
SPLINE
5
196
100
AcDbEntity
8
0
100
AcDbSpline
70
0
71
2
72
6
73
3
74
0
42
0.000000001
43
0.0000000001
44
0.0000000001
40
0
40
0
40
0
40
1
40
1
40
1
10
-37.525237398779964
20
104.7952734840338
30
0
10
-42.736106037788446
20
109.81661988502707
30
0
10
-51.126275572688051
20
109.82900798477844
30
0
0
SPLINE
5
197
100
AcDbEntity
8
0
100
AcDbSpline
70
0
71
2
72
6
73
3
74
0
42
0.000000001
43
0.0000000001
44
0.0000000001
40
0
40
0
40
0
40
1
40
1
40
1
10
-51.126275572688051
20
109.82900798477844
30
0
10
-59.99393262803693
20
109.84210109567516
30
0
10
-65.322384167446842
20
104.52935653223973
30
0
0
SPLINE
5
198
100
AcDbEntity
8
0
100
AcDbSpline
70
0
71
2
72
6
73
3
74
0
42
0.000000001
43
0.0000000001
44
0.0000000001
40
0
40
0
40
0
40
1
40
1
40
1
10
-65.322384167446842
20
104.52935653223973
30
0
10
-70.650833308592553
20
99.216621502016807
30
0
10
-70.73294482526444
20
89.803361392853077
30
0
0
LINE
5
199
100
AcDbEntity
8
0
100
AcDbLine
10
-70.73294482526444
20
89.803361392853077
30
0
11
-83.350390067868716
21
91.118035881178599
31
0
0
SPLINE
5
200
100
AcDbEntity
8
0
100
AcDbSpline
70
0
71
2
72
6
73
3
74
0
42
0.000000001
43
0.0000000001
44
0.0000000001
40
0
40
0
40
0
40
1
40
1
40
1
10
-83.350390067868716
20
91.118035881178599
30
0
10
-82.033499815896889
20
105.23616589508357
30
0
10
-73.564191083112917
20
112.62476345021659
30
0
0
SPLINE
5
201
100
AcDbEntity
8
0
100
AcDbSpline
70
0
71
2
72
6
73
3
74
0
42
0.000000001
43
0.0000000001
44
0.0000000001
40
0
40
0
40
0
40
1
40
1
40
1
10
-73.564191083112917
20
112.62476345021659
30
0
10
-65.094882364409955
20
120.0133514686168
30
0
10
-50.838418164213302
20
119.99230177470068
30
0
0
SPLINE
5
202
100
AcDbEntity
8
0
100
AcDbSpline
70
0
71
2
72
6
73
3
74
0
42
0.000000001
43
0.0000000001
44
0.0000000001
40
0
40
0
40
0
40
1
40
1
40
1
10
-50.838418164213302
20
119.99230177470068
30
0
10
-36.445528617576414
20
119.97105064852585
30
0
10
-28.067142882131797
20
111.97777143737879
30
0
0
SPLINE
5
203
100
AcDbEntity
8
0
100
AcDbSpline
70
0
71
2
72
6
73
3
74
0
42
0.000000001
43
0.0000000001
44
0.0000000001
40
0
40
0
40
0
40
1
40
1
40
1
10
-28.067142882131797
20
111.97777143737879
30
0
10
-19.688761915053572
20
103.98449223327222
30
0
10
-19.706185824792762
20
92.18368665318323
30
0
0
SPLINE
5
204
100
AcDbEntity
8
0
100
AcDbSpline
70
0
71
2
72
6
73
3
74
0
42
0.000000001
43
0.0000000001
44
0.0000000001
40
0
40
0
40
0
40
1
40
1
40
1
10
-19.706185824792762
20
92.18368665318323
30
0
10
-19.715048858256694
20
86.180961873079553
30
0
10
-22.179265970456406
20
80.386506853750888
30
0
0
SPLINE
5
205
100
AcDbEntity
8
0
100
AcDbSpline
70
0
71
2
72
6
73
3
74
0
42
0.000000001
43
0.0000000001
44
0.0000000001
40
0
40
0
40
0
40
1
40
1
40
1
10
-22.179265970456406
20
80.386506853750888
30
0
10
-24.643487858063011
20
74.592047073096353
30
0
10
-30.348716378892142
20
68.188458439056291
30
0
0
SPLINE
5
206
100
AcDbEntity
8
0
100
AcDbSpline
70
0
71
2
72
6
73
3
74
0
42
0.000000001
43
0.0000000001
44
0.0000000001
40
0
40
0
40
0
40
1
40
1
40
1
10
-30.348716378892142
20
68.188458439056291
30
0
10
-36.053949668087654
20
61.784869812056741
30
0
10
-49.303742428409194
20
50.617516052593245
30
0
0
SPLINE
5
207
100
AcDbEntity
8
0
100
AcDbSpline
70
0
71
2
72
6
73
3
74
0
42
0.000000001
43
0.0000000001
44
0.0000000001
40
0
40
0
40
0
40
1
40
1
40
1
10
-49.303742428409194
20
50.617516052593245
30
0
10
-60.367902434474843
20
41.356898984959614
30
0
10
-63.510574912921172
20
38.053210726270486
30
0
0
SPLINE
5
208
100
AcDbEntity
8
0
100
AcDbSpline
70
0
71
2
72
6
73
3
74
0
42
0.000000001
43
0.0000000001
44
0.0000000001
40
0
40
0
40
0
40
1
40
1
40
1
10
-63.510574912921172
20
38.053210726270486
30
0
10
-66.6532449931033
20
34.749532000793906
30
0
10
-68.704562683589799
20
31.410119387401068
30
0
0
LINE
5
209
100
AcDbEntity
8
0
100
AcDbLine
10
-68.704562683589799
20
31.410119387401068
30
0
11
-19.659596994198871
21
31.337704411191559
31
0
0
LINE
5
210
100
AcDbEntity
8
0
100
AcDbLine
10
-19.659596994198871
20
331.33770441119157
30
0
11
-19.677020896897556
21
319.53690359946893
31
0
0
LINE
5
211
100
AcDbEntity
8
0
100
AcDbLine
10
-19.677020896897552
20
319.53690359946899
30
0
11
-85.775173964785012
21
319.63449763617842
31
0
0
SPLINE
5
212
100
AcDbEntity
8
0
100
AcDbSpline
70
0
71
2
72
6
73
3
74
0
42
0.000000001
43
0.0000000001
44
0.0000000001
40
0
40
0
40
0
40
1
40
1
40
1
10
-85.775173964785012
20
319.63449763617837
30
0
10
-85.905053055559932
20
324.06852640445999
30
0
10
-84.330117106581
20
328.15897509285855
30
0
0
SPLINE
5
213
100
AcDbEntity
8
0
100
AcDbSpline
70
0
71
2
72
6
73
3
74
0
42
0.000000001
43
0.0000000001
44
0.0000000001
40
0
40
0
40
0
40
1
40
1
40
1
10
-84.330117106581
20
328.15897509285855
30
0
10
-81.796274304560498
20
334.90831396928883
30
0
10
-76.227266714163676
20
341.44853176181073
30
0
0
SPLINE
5
214
100
AcDbEntity
8
0
100
AcDbSpline
70
0
71
2
72
6
73
3
74
0
42
0.000000001
43
0.0000000001
44
0.0000000001
40
0
40
0
40
0
40
1
40
1
40
1
10
-76.227266714163676
20
341.44853176181073
30
0
10
-70.658258541802056
20
347.98874001671976
30
0
10
-60.140805887179063
20
356.56803846361009
30
0
0
SPLINE
5
215
100
AcDbEntity
8
0
100
AcDbSpline
70
0
71
2
72
6
73
3
74
0
42
0.000000001
43
0.0000000001
44
0.0000000001
40
0
40
0
40
0
40
1
40
1
40
1
10
-60.140805887179063
20
356.56803846361009
30
0
10
-43.818216332497414
20
369.91367030338273
30
0
10
-38.07681500362893
20
377.7155701658678
30
0
0
SPLINE
5
216
100
AcDbEntity
8
0
100
AcDbSpline
70
0
71
2
72
6
73
3
74
0
42
0.000000001
43
0.0000000001
44
0.0000000001
40
0
40
0
40
0
40
1
40
1
40
1
10
-38.07681500362893
20
377.7155701658678
30
0
10
-32.335413674760446
20
385.51747002835299
30
0
10
-32.325140619005843
20
392.47516984935515
30
0
0
SPLINE
5
217
100
AcDbEntity
8
0
100
AcDbSpline
70
0
71
2
72
6
73
3
74
0
42
0.000000001
43
0.0000000001
44
0.0000000001
40
0
40
0
40
0
40
1
40
1
40
1
10
-32.325140619005843
20
392.47516984935515
30
0
10
-32.314363977324099
20
399.77393661273283
30
0
10
-37.525237398779964
20
404.79527348403383
30
0
0
SPLINE
5
218
100
AcDbEntity
8
0
100
AcDbSpline
70
0
71
2
72
6
73
3
74
0
42
0.000000001
43
0.0000000001
44
0.0000000001
40
0
40
0
40
0
40
1
40
1
40
1
10
-37.525237398779964
20
404.79527348403383
30
0
10
-42.736106037788446
20
409.81661988502708
30
0
10
-51.126275572688051
20
409.8290079847784
30
0
0
SPLINE
5
219
100
AcDbEntity
8
0
100
AcDbSpline
70
0
71
2
72
6
73
3
74
0
42
0.000000001
43
0.0000000001
44
0.0000000001
40
0
40
0
40
0
40
1
40
1
40
1
10
-51.126275572688051
20
409.8290079847784
30
0
10
-59.99393262803693
20
409.84210109567522
30
0
10
-65.322384167446842
20
404.52935653223972
30
0
0
SPLINE
5
220
100
AcDbEntity
8
0
100
AcDbSpline
70
0
71
2
72
6
73
3
74
0
42
0.000000001
43
0.0000000001
44
0.0000000001
40
0
40
0
40
0
40
1
40
1
40
1
10
-65.322384167446842
20
404.52935653223972
30
0
10
-70.650833308592553
20
399.21662150201684
30
0
10
-70.73294482526444
20
389.80336139285316
30
0
0
LINE
5
221
100
AcDbEntity
8
0
100
AcDbLine
10
-70.73294482526444
20
389.80336139285316
30
0
11
-83.350390067868716
21
391.11803588117868
31
0
0
SPLINE
5
222
100
AcDbEntity
8
0
100
AcDbSpline
70
0
71
2
72
6
73
3
74
0
42
0.000000001
43
0.0000000001
44
0.0000000001
40
0
40
0
40
0
40
1
40
1
40
1
10
-83.350390067868716
20
391.11803588117868
30
0
10
-82.033499815896889
20
405.23616589508356
30
0
10
-73.564191083112917
20
412.62476345021662
30
0
0
SPLINE
5
223
100
AcDbEntity
8
0
100
AcDbSpline
70
0
71
2
72
6
73
3
74
0
42
0.000000001
43
0.0000000001
44
0.0000000001
40
0
40
0
40
0
40
1
40
1
40
1
10
-73.564191083112917
20
412.62476345021662
30
0
10
-65.094882364409955
20
420.01335146861686
30
0
10
-50.838418164213302
20
419.99230177470065
30
0
0
SPLINE
5
224
100
AcDbEntity
8
0
100
AcDbSpline
70
0
71
2
72
6
73
3
74
0
42
0.000000001
43
0.0000000001
44
0.0000000001
40
0
40
0
40
0
40
1
40
1
40
1
10
-50.838418164213302
20
419.99230177470065
30
0
10
-36.445528617576414
20
419.97105064852582
30
0
10
-28.067142882131797
20
411.97777143737881
30
0
0
SPLINE
5
225
100
AcDbEntity
8
0
100
AcDbSpline
70
0
71
2
72
6
73
3
74
0
42
0.000000001
43
0.0000000001
44
0.0000000001
40
0
40
0
40
0
40
1
40
1
40
1
10
-28.067142882131797
20
411.97777143737881
30
0
10
-19.688761915053572
20
403.98449223327225
30
0
10
-19.706185824792762
20
392.18368665318326
30
0
0
SPLINE
5
226
100
AcDbEntity
8
0
100
AcDbSpline
70
0
71
2
72
6
73
3
74
0
42
0.000000001
43
0.0000000001
44
0.0000000001
40
0
40
0
40
0
40
1
40
1
40
1
10
-19.706185824792762
20
392.18368665318326
30
0
10
-19.715048858256694
20
386.18096187307958
30
0
10
-22.179265970456406
20
380.38650685375092
30
0
0
SPLINE
5
227
100
AcDbEntity
8
0
100
AcDbSpline
70
0
71
2
72
6
73
3
74
0
42
0.000000001
43
0.0000000001
44
0.0000000001
40
0
40
0
40
0
40
1
40
1
40
1
10
-22.179265970456406
20
380.38650685375092
30
0
10
-24.643487858063011
20
374.59204707309641
30
0
10
-30.348716378892142
20
368.18845843905626
30
0
0
SPLINE
5
228
100
AcDbEntity
8
0
100
AcDbSpline
70
0
71
2
72
6
73
3
74
0
42
0.000000001
43
0.0000000001
44
0.0000000001
40
0
40
0
40
0
40
1
40
1
40
1
10
-30.348716378892142
20
368.18845843905626
30
0
10
-36.053949668087654
20
361.7848698120568
30
0
10
-49.303742428409194
20
350.61751605259326
30
0
0
SPLINE
5
229
100
AcDbEntity
8
0
100
AcDbSpline
70
0
71
2
72
6
73
3
74
0
42
0.000000001
43
0.0000000001
44
0.0000000001
40
0
40
0
40
0
40
1
40
1
40
1
10
-49.303742428409194
20
350.61751605259326
30
0
10
-60.367902434474843
20
341.35689898495963
30
0
10
-63.510574912921172
20
338.05321072627055
30
0
0
SPLINE
5
230
100
AcDbEntity
8
0
100
AcDbSpline
70
0
71
2
72
6
73
3
74
0
42
0.000000001
43
0.0000000001
44
0.0000000001
40
0
40
0
40
0
40
1
40
1
40
1
10
-63.510574912921172
20
338.05321072627055
30
0
10
-66.6532449931033
20
334.74953200079392
30
0
10
-68.704562683589799
20
331.4101193874011
30
0
0
LINE
5
231
100
AcDbEntity
8
0
100
AcDbLine
10
-68.704562683589799
20
331.4101193874011
30
0
11
-19.659596994198871
21
331.33770441119157
31
0
0
LINE
5
232
100
AcDbEntity
8
0
100
AcDbLine
10
-42.528291310551147
20
619.57064353954433
30
0
11
-42.492939912186145
21
643.51331687373136
31
0
0
LINE
5
233
100
AcDbEntity
8
0
100
AcDbLine
10
-42.492939912186145
20
643.51331687373136
30
0
11
-85.876248210883148
21
643.57737240306403
31
0
0
LINE
5
234
100
AcDbEntity
8
0
100
AcDbLine
10
-85.876248210883148
20
643.57737240306415
30
0
11
-85.859630023138294
21
654.83248136575867
31
0
0
LINE
5
235
100
AcDbEntity
8
0
100
AcDbLine
10
-85.859630023138294
20
654.83248136575855
30
0
11
-40.129619506931206
21
719.56721089930716
31
0
0
LINE
5
236
100
AcDbEntity
8
0
100
AcDbLine
10
-40.129619506931206
20
719.56721089930716
30
0
11
-30.10234581474862
21
719.55240561245137
31
0
0
LINE
5
237
100
AcDbEntity
8
0
100
AcDbLine
10
-30.102345814748617
20
719.55240561245137
30
0
11
-30.198026239719798
21
654.75029691202099
31
0
0
LINE
5
238
100
AcDbEntity
8
0
100
AcDbLine
10
-30.198026239719802
20
654.75029691202099
30
0
11
-16.691905021219302
21
654.73035510080808
31
0
0
LINE
5
239
100
AcDbEntity
8
0
100
AcDbLine
10
-16.691905021219302
20
654.73035510080808
30
0
11
-16.708523208964177
21
643.47524613811379
31
0
0
LINE
5
240
100
AcDbEntity
8
0
100
AcDbLine
10
-16.708523208964181
20
643.47524613811379
30
0
11
-30.214644427464677
21
643.49518794932669
31
0
0
LINE
5
241
100
AcDbEntity
8
0
100
AcDbLine
10
-30.214644427464677
20
643.49518794932669
30
0
11
-30.249995825829682
21
619.55251461513956
31
0
0
LINE
5
242
100
AcDbEntity
8
0
100
AcDbLine
10
-30.249995825829679
20
619.55251461513956
30
0
11
-42.52829131055114
21
619.57064353954433
31
0
0
LINE
5
243
100
AcDbEntity
8
0
100
AcDbLine
10
-42.47632172444127
20
654.76842583642576
30
0
11
-42.409748294295049
21
699.85704932649992
31
0
0
LINE
5
244
100
AcDbEntity
8
0
100
AcDbLine
10
-42.409748294295042
20
699.85704932649992
30
0
11
-73.785973303134426
21
654.81465459084177
31
0
0
LINE
5
245
100
AcDbEntity
8
0
100
AcDbLine
10
-73.78597330313444
20
654.81465459084177
30
0
11
-42.47632172444127
21
654.76842583642565
31
0
0
ENDSEC
0
SECTION
2
OBJECTS
0
DICTIONARY
5
C
100
AcDbDictionary
3
ACAD_GROUP
350
D
3
ACAD_MLINESTYLE
350
17
0
DICTIONARY
5
D
100
AcDbDictionary
0
DICTIONARY
5
1A
330
C
100
AcDbDictionary
0
DICTIONARY
5
17
100
AcDbDictionary
0
ENDSEC
0
EOF
